<?xml version="1.0" encoding="UTF-8"?>
<svg version="1.1" viewBox="0 0 1080 1080" width="1080" height="1080" xmlns="http://www.w3.org/2000/svg">
<path transform="translate(0)" d="m0 0h1080v1080h-1080z" fill="#FCFCFC"/>
<path transform="translate(192,497)" d="m0 0 14 2 13 4 11 6 11 11 9 14 4 13 2 12v10l-2 14-4 13-7 11-7 7-11 8h79l-13-8v-3l5 1 17 10-1 5-13 9-5 2v-4l8-6-116-1-18-4-16-8-11-7-5-5-5-6-6-12-2-9v-22l5-15 8-14 9-10 12-9 14-6 8-2z" fill="#FDFDFD"/>
<path transform="translate(868,505)" d="m0 0 7 1 4 8v3l22-2h8l3 9 5 1 3-9 2-2h14l1 1 1 7v10l-4 2h-5l-3 1 1 5 10 2 2 3v15l-2 1-14 1-3 9-4 2-5-1-4-4-1-6h-11l1 11 7 1 4 5v6l-4 5-6 2v11l-4 3h-12l-4-10-4-1-2 2-2 9-1 1h-24l-6-1-2 8-2 2h-6l-5-5-1-4h-12l-2-1-1-8v-10l4-1 5-1-1-5-7-2-1-2-1-11v-15l-10-1-5-5 1-6 6-5 7-1v-14l2-1h14l1 3 1 5 2 2 4-1 2-9 1-1h29l1-7z" fill="#040502"/>
<path transform="translate(606,513)" d="m0 0h6l2 3v5l-9 10-9 11-11 13 2 38 1 37-1 2-15 1h-53l-33-1-4-2-2-11-1-14-1-37-1-9-9-6-21-12-8-6-1-4 5-6 6 1 18 11 14 10 5 3v4l93-1 9-11 8-9-5 4-11 13-2 2-4-1 1-5 13-15 12-13z" fill="#0D1007"/>
<path transform="translate(555,400)" d="m0 0h15l4 3 1 6 1 26-1 1-11 1-10 5-4 7v6l1 4 10 3 14 1 3 4v20l-6 2-22-1-2 14-4 8-4 3-6 1-8-4-6-8-2-6v-7l-3 1-22 1-4-2-1-4-1-18-1-1h-10l-5-3-4-5-2-6v-8l3-6 4-3 3-1h11l4 1-1-3-2-28 4-1 27-2 3 1 1 4 1 10 4 6 6 3 5-2 3-9 2-10 3-3z" fill="#97C241"/>
<path transform="translate(497,559)" d="m0 0h17l15 1 2 35v32h-24l-21-1-3-66z" fill="#FDFDFD"/>
<path transform="translate(576,559)" d="m0 0h4l2 52v15l-8 1h-37l-2-46-1-21z" fill="#FDFDFD"/>
<path transform="translate(555,400)" d="m0 0h15l4 3 1 6 1 26-1 1-11 1-10 5-4 7v6l1 4 10 3 14 1 3 4v20l-6 2-22-1-2 14-4 8-4 3-6 1-8-4-6-8-2-6v-7l-3 1-22 1-4-2-1-4-1-18-1-1h-10l-5-3-4-5-2-6v-8l3-6 4-3 3-1h11l4 1-1-3-2-28 4-1 27-2 3 1 1 4 1 10 4 6 6 3 5-2 3-9 2-10 3-3zm4 5-10 1-4 15-5 8-2 1h-8l-6-4-5-6-2-6-1-7-22 1-1 5 1 13v13l-5 1h-15l-3 3v11l4 6 2 1h8l7-1 1 2-1 5 1 14 1 5 25-1h4v10l4 8 6 5h5l4-5 3-17v-2l28-1v-14l-16-2-10-5-2-4v-12l4-6 8-6 6-2 7-1v-18l-1-8z" fill="#060702"/>
<path transform="translate(192,497)" d="m0 0 14 2 13 4 11 6 11 11 9 14 4 13 2 12v10l-2 14-4 13-7 11-7 7-11 8-4-1 1-3 11-8 7-7 6-10 4-15 1-6v-15l-3-14-5-12-8-11-3-3v-2l-4-2-10-6-11-4-10-2h-11l-14 3-10 4-13 9-9 10-8 15-4 12-1 14 3 17 6 11 11 11 14 8 13 5 16 2h114l-13-8v-3l5 1 17 10-1 5-13 9-5 2v-4l8-6-116-1-18-4-16-8-11-7-5-5-5-6-6-12-2-9v-22l5-15 8-14 9-10 12-9 14-6 8-2z" fill="#0D1106"/>
<path transform="translate(165,524)" d="m0 0 4 2 5 6 4-1 6-5 4 1 6 6-1 4-3 3-1 6 10 3 1 1v9l-1 1-14 1 4 8v3l-5 4-5 2h-4l-5-9v-2l-5 3-4 4-5-1-8-7 6-9-1-3-9-5 1-5 3-5h8l2-1 1-10z" fill="#FDFDFD"/>
<path transform="translate(868,552)" d="m0 0 5 1 4 9h15l1 14 3 1 3-1 4 3v6l-9 4-1 13-9 1-4-10-2-1h-7l-3 3-2 8-13 1-1-3v-9l7-4 1-2v-6l-1-3-7-2-1-1v-10h12l1-8z" fill="#80A438"/>
<path transform="translate(868,509)" d="m0 0h5l3 9v2h14l2 7v5l-8 2-3 1-1 7 3 3 9 3 1 10-4 1h-10l-5-9-6-1-5 4-3 8-9-1-1-13-9-3-1-5 4-3 6-2v-13h15l-1-6 3-5z" fill="#80A438"/>
<path transform="translate(924,517)" d="m0 0h10l1 13-9 2-3 4 1 6 6 3 5 1v11l-15 2-1 1-2 9-5-1-3-5v-3l-12-1-1-1-2-12-6-2-5-2 1-5 10-4v-14h12l4 8 3 2 6-1z" fill="#96C141"/>
<path transform="translate(835,520)" d="m0 0h11l1 3v10l-7 2-3 7 3 5 8 3v10l-13 1-3 9-5 1-3-4-1-6h-13l-1-1v-12l-10-1-4-2 1-5 4-3h8l1-15 1-1h7l4 8 4 3 5-1 3-5z" fill="#80A438"/>
<path transform="translate(838,563)" d="m0 0h10v15h6l4 4-1 4-6 3h-2v14h-15v7l-2 3-5-2-2-4v-3h-14l-1-13 7-1 2-2v-7l-4-4-5-2v-11h10l4 8 3 2 6-1z" fill="#80A438"/>
<path transform="translate(207,559)" d="m0 0h2l3 6 3 1v-2l5-4 4 1 6 4-2 4h-2l-1 5h10v9l-1 3h-9l5 7-8 6-8-6-3 7-7-2-3-3 1-8h-9l-1-3v-9l7-4-1-8z" fill="#131908"/>
<path transform="translate(165,524)" d="m0 0 4 2 5 6 4-1 6-5 4 1 6 6-1 4-3 3-1 6 10 3 1 1v9l-1 1-14 1 4 8v3l-5 4-5 2h-4l-5-9v-2l-5 3-4 4-5-1-8-7 6-9-1-3-9-5 1-5 3-5h8l2-1 1-10zm0 5-2 2-1 9-1 3-10 1v4l6 3 1 2v6l-4 7 4 3 3-1 3-3v-2l8 1 6 9 6-2-2-6v-6l5-3 9-1v-2l-9-4-2-3v-6l4-6-2-2-4 1-4 3h-6l-5-4z" fill="#121708"/>
<path transform="translate(693,545)" d="m0 0h7l11 4 5 4-1 5-7 6-11 6-3-1-1-10-26 1-1-4 11-1h15v-9z" fill="#060802"/>
<path transform="translate(379,546)" d="m0 0 6 1 13 8v5l-8 5-8 4-4-1v-8h-34v-4h30l4 1v-9z" fill="#0D1005"/>
<path transform="translate(848,668)" d="m0 0h8l5 4 1 3v8l-4 8-4 2-8-1-4-5-1-8 3-7z" fill="#0A0E04"/>
<path transform="translate(635,668)" d="m0 0h8l5 4 1 3v8l-4 8-4 2-8-1-4-5-1-8 3-7z" fill="#0A0E04"/>
<path transform="translate(942,668)" d="m0 0h7l5 3 2 5-1 9-3 5-4 3h-6l-6-5-1-3v-7l3-6z" fill="#080B03"/>
<path transform="translate(868,667)" d="m0 0h7l5 3 3 6v10l-5 6-2 1h-6l-3-3v-22z" fill="#080B03"/>
<path transform="translate(168,540)" d="m0 0h10l5 5v7l-3 5-3 2h-9l-5-5v-8z" fill="#111607"/>
<path transform="translate(848,578)" d="m0 0h6l4 4-1 4-6 3h-2v14h-15v7l-2 3-5-2 4-8 10-13 8-10z" fill="#81A638"/>
<path transform="translate(528,668)" d="m0 0 4 1 8 14 6-15h4l1 4 1 20h-4l-1-10-1-2-4 10h-4l-5-10-1 10-4-1z" fill="#070803"/>
<path transform="translate(90,621)" d="m0 0 77 2v4h-17l-51-1-20-1v-3z" fill="#0C0F05"/>
<path transform="translate(840,564)" d="m0 0h6l-1 4-8 11-14 19-3 5h-8l6-9 13-18 4-6 1-3z" fill="#98C441"/>
<path transform="translate(596,666)" d="m0 0 3 1 1 10v13l-2 3-4-2-7-12-1-1-1 14h-3l-1-2v-20l1-2 4 1 7 11 2 3v-16z" fill="#0A0D04"/>
<path transform="translate(230,660)" d="m0 0 3 1 1 10v13l-2 3-4-2-7-12-1-1-1 14h-3l-1-2v-20l1-2 4 1 7 11 2 3v-16z" fill="#0A0D04"/>
<path transform="translate(822,668)" d="m0 0 7 1 3 3 1 6-2 6 5 4 1 5-4-1-7-6-2-1v7h-4v-23z" fill="#0F1406"/>
<path transform="translate(187,662)" d="m0 0 7 1 3 3 1 6-2 6 5 4 1 5-4-1-7-6-2-1v7h-4v-23z" fill="#0F1406"/>
<path transform="translate(455,666)" d="m0 0 3 1v25h-4l-9-14-1 13h-4v-22h4l8 11 2 3v-16z" fill="#040501"/>
<path transform="translate(489,668)" d="m0 0 7 1 3 3v8l-2 3 5 5 2 4h-4l-6-5-2-1-3 7-2-1v-23z" fill="#0C1005"/>
<path transform="translate(802,668)" d="m0 0h9l4 4v8l-4 4h-6v8h-4v-23z" fill="#0C0F05"/>
<path transform="translate(167,662)" d="m0 0h9l4 4v8l-4 4h-6v8h-4v-23z" fill="#0C0F05"/>
<path transform="translate(884,469)" d="m0 0 9 2 10 6 6 9 2 7 6-5 1 4-6 8h-6l-7-5 1-3 5 2 2 1-4-11-8-7-7-3-6-2z" fill="#121707"/>
<path transform="translate(847,573)" d="m0 0h1v6l2 1-9 11-12 17-2 2-2-3v-5l14-19z" fill="#98C441"/>
<path transform="translate(563,667)" d="m0 0h11l1 4h-12l1 8h6v4h-6v6h12v4h-14l-2-2-1-22z" fill="#090C04"/>
<path transform="translate(511,667)" d="m0 0h12l1 4h-12v8h7v4h-6v6h12l1 2-1 2h-15l-1-2-1-22z" fill="#080A03"/>
<path transform="translate(204,565)" d="m0 0h3l5 5 6-2 4-3 1 2-2 4 1 5 1 1 7 1v3h-6l-3 3 1 5 2 3h-3l-6-4 4-5v-9l-3-1h-7l-3 3v9l-4-2h-5l-1-5 6-3 1-7z" fill="#FDFDFD"/>
<path transform="translate(472,665)" d="m0 0 6 1 3 3v3l-4-1-5-1-4 4v8l3 6 6-1 2-2h3l-1 4-5 4h-6l-5-5-2-6v-9l6-7z" fill="#0B0F05"/>
<path transform="translate(889,669)" d="m0 0 4 1v15l2 3 5-1 1-3 1-13 4-1v14l-3 6-4 3h-5l-5-5-1-3v-13z" fill="#0E1206"/>
<path transform="translate(209,572)" d="m0 0h7l3 2 1 9-4 4h-7l-4-4v-7z" fill="#101507"/>
<path transform="translate(851,671)" d="m0 0 6 2 1 2v8l-3 5-1 1-7-1-2-3 1-9z" fill="#FDFDFD"/>
<path transform="translate(638,671)" d="m0 0 6 2 1 2v8l-3 5-1 1-7-1-2-3 1-9z" fill="#FDFDFD"/>
<path transform="translate(943,672)" d="m0 0h6l3 4-1 9-3 4h-6l-3-4v-8z" fill="#FDFDFD"/>
<path transform="translate(810,564)" d="m0 0h10l6 12-4 5h-3l-4-4-5-2z" fill="#80A438"/>
<path transform="translate(152,661)" d="m0 0 6 1 3 3v3l-4-1-5-2 1 5 6 7 1 5-2 4-7 1-5-4v-5h3l2 4h4l-2-5-5-6v-7z" fill="#0C0F05"/>
<path transform="translate(696,548)" d="m0 0 13 4 3 2-2 4-12 7-2-3-1-13z" fill="#80A438"/>
<path transform="translate(850,463)" d="m0 0 7 1 1 2v8l-4 4-6-1-2-3v-6z" fill="#0F1406"/>
<path transform="translate(822,463)" d="m0 0 7 1 1 2v8l-4 4-6-1-2-3v-6z" fill="#0F1406"/>
<path transform="translate(870,671)" d="m0 0 7 1 2 4v10l-3 3h-5l-1-5z" fill="#FDFDFD"/>
<path transform="translate(606,670)" d="m0 0 17 1v4h-6v13l-1 5h-3v-18l-8-1v-3z" fill="#0B0E04"/>
<path transform="translate(240,664)" d="m0 0 17 1v4h-6v13l-1 5h-3v-18l-8-1v-3z" fill="#0B0E04"/>
<path transform="translate(912,670)" d="m0 0 17 1 1 4-6 1-1 16h-4v-10l1-7-9-1z" fill="#0A0D04"/>
<path transform="translate(591,465)" d="m0 0 10 1 10 3-1 5-8-1-11-3-1-4z" fill="#0D1105"/>
<path transform="translate(813,462)" d="m0 0h2v16l-3-1-4-7-1 7h-3v-13h3l5 7z" fill="#212B0E"/>
<path transform="translate(382,550)" d="m0 0 10 5 2 3-8 5-4 1z" fill="#80A438"/>
<path transform="translate(170,544)" d="m0 0 7 1 1 1v6l-4 3-5-1-2-2 1-6z" fill="#FDFDFD"/>
<path transform="translate(207,662)" d="m0 0h3l1 14v10h-4l-1-13v-10z" fill="#131808"/>
<path transform="translate(432,668)" d="m0 0 3 1v24h-3l-1-9v-15z" fill="#0B0E05"/>
<path transform="translate(464,483)" d="m0 0h4l1 3-9 8-6 1-1-2 5-6z" fill="#0A0D04"/>
<path transform="translate(533,350)" d="m0 0 4 1v7l-3 8h-4l1-10z" fill="#0B0E04"/>
<path transform="translate(459,386)" d="m0 0 7 4 4 4v4l-3 1-9-7-1-5z" fill="#0E1206"/>
<path transform="translate(810,564)" d="m0 0h10l-4 7-3 4h-3z" fill="#94BE40"/>
<path transform="translate(604,378)" d="m0 0 3 1-1 5-6 5-5-1 2-5z" fill="#151C09"/>
<path transform="translate(851,465)" d="m0 0 4 1 1 1v6l-3 3-4-1-1-5z" fill="#FDFDFD"/>
<path transform="translate(823,465)" d="m0 0 4 1 1 1v6l-3 3-4-1-1-5z" fill="#FDFDFD"/>
<path transform="translate(219,575)" d="m0 0 4 2 7 1v3h-6l-3 3 1 5 2 3h-3l-6-4 4-5z" fill="#ECF1E3"/>
<path transform="translate(833,466)" d="m0 0 3 1 2 4 3-5h2l-1 5-3 7h-2l-4-10z" fill="#0E1206"/>
<path transform="translate(821,572)" d="m0 0 4 1v4l-3 4h-3l-1-5z" fill="#97C241"/>
<path transform="translate(805,672)" d="m0 0h5l1 1v6l-1 1h-5z" fill="#FDFDFD"/>
<path transform="translate(170,666)" d="m0 0h5l1 1v6l-1 1h-5z" fill="#FDFDFD"/>
<path transform="translate(847,592)" d="m0 0 2 2v9l-7-1 2-5z" fill="#94BE40"/>
<path transform="translate(926,571)" d="m0 0h3l3 12h-4l-2-8z" fill="#111607"/>
<path transform="translate(953,526)" d="m0 0h8v3l-4 1h-8v-3z" fill="#121808"/>
<path transform="translate(940,489)" d="m0 0 3 3-6 8h-3l1-4z" fill="#0C1005"/>
<path transform="translate(490,672)" d="m0 0 5 1 1 4-2 3h-4z" fill="#FDFDFD"/>
<path transform="translate(949,551)" d="m0 0 7 4 2 4-5-1-5-4z" fill="#111607"/>
<path transform="translate(211,576)" d="m0 0 4 1 1 4-2 2-4-1-1-4z" fill="#FDFDFD"/>
<path transform="translate(824,672)" d="m0 0 5 2-1 5-4 1z" fill="#FDFDFD"/>
<path transform="translate(189,666)" d="m0 0 5 2-1 5-4 1z" fill="#FDFDFD"/>
<path transform="translate(206,585)" d="m0 0 6 3-3 6-3-1z" fill="#FDFDFD"/>
<path transform="translate(219,583)" d="m0 0h1l2 6 2 3h-3l-6-4z" fill="#FDFDFD"/>
<path transform="translate(862,463)" d="m0 0h2v11h-3z" fill="#181F0A"/>
</svg>
