<?xml version="1.0" encoding="UTF-8"?>
<svg version="1.1" viewBox="0 0 2048 1024" width="700" height="350" xmlns="http://www.w3.org/2000/svg">
<path transform="translate(0)" d="m0 0h2048v1024h-2048z" fill="#383838"/>
<path transform="translate(0)" d="m0 0h2048v1024h-220l-3-17-7-41-7-31-7-27-2-6-4-13-4-10-4-13-5-14-3-8-5-11-6-17-9-21-4-8-5-13-8-13-3-12-8-18-12-4-16-8-8-6-12-5-18-6-9-4-8-4-9-7v-2h-2v-5l6-6 7-2h10l17 4h5l2-3v-7l-6-15-10-17-15-22-1-3h-2l-6-9-11-13-3-6v-7l3-5 6-3h7l8 6 10 11 8 10v2h2l4 7 9 12 2 4 3-8 4-5h10l10 3 3-6 2-2 6-1 7 3 7 5v2h3l1-4 7-5h6l8 6 10 14 2 5h2l8 16 6 18 3 17v8l-3 14v6l11 21 5 8 2 11 6 15 15 36 7 20 6 16 15 46 12 44 8 37 1 7 2-1 41-1v-904l-642-1-1137 1-30 1 1 902 1 1 48 1h63l2-17 4-23 9-41 8-31 13-40 11-29 3-6 7 1 8 2 1-6 7-19 6 1 5 2-3-20-5-20-9-27-1-4v-16l4-11 4-7 3-13 5-10 8-10 10-9 14-9 11-5 7-1 5 3v7l-2 5-10 7-10 9-8 9-4 9-1 5v22l2-1 4-20 8-16 10-13 12-9 9-3h8l3 3v7l-7 12-4 5-7 6-4 7-4 11-1 5v10l3 8 5 8 7 4 4 1h7l10-5 8-10 10-18 10-11 7-5 9-1 4 5v11l-9 13-7 10-10 19-3 11-5 12-3 10-7 11-4 5-14 8-3 1v2l-5 4h-2l-2 4-3 1v2l11 4-1 5-7 18-1 4 11 3 1 2-13 34-12 36-11 41-7 39-6 45-2 17h-333z" fill="#56A278"/>
<path transform="translate(1286,57)" d="m0 0 627 1 15 1 1 4v900l-1 1-43 1-3-12-4-19v-6l2-1h12l-1-124 1-706h-1735l-1 830h81l-1 13-4 24-17 1h-46l-48-1-2-2v-902l5-1 25-1z" fill="#9B5944"/>
<path transform="translate(852,164)" d="m0 0h3l1 28 651 1 1-4 3 3 301 1-1 4h-301v103h338l1 4-338 1-1 531-4-1v-531l-291 1-1 391-4-1v-391h-354v431l-4 1-1-1v-431h-298v457h-5v-457h-330v-4h330v-103h-329l-1-4 330-1 1-2h3l1 2h298z" fill="#383939"/>
<path transform="translate(1006,964)" d="m0 0h715l83 1 2 7v-3-3l2-1h6v7l2 7 4 17 4 24v4h-804l-3-9-10-40z" fill="#55A177"/>
<path transform="translate(977,569)" d="m0 0 9 1 6 7v8l-7 27-6 35-1 11v20l3 7 5 1 5-2v-2l5-2v-2l12-7 3-1h12l5 4-1 7-8 12-11 12-11 11-7 6-10 16-12 13-6 7-1 3 7 1v28h12l1 65 4 49 2 16 3 17 4 21 1 11 4 13 4 20 5 19v3h-108l-13-57-3-14-4-26-1-2-6-66v-67l1-1 13-1 1-27 5-2-1-7-8-10-5-11-4-17-1-6v-25l4-24 3-9 6-5h7l5 3h3l4-10 8-6 6 1 8 4 2-4 6-5 2-1h7l6 5 2 3 1-1 4-24 6-25 5-12 5-5z" fill="#FECA13"/>
<path transform="translate(361,596)" d="m0 0 6 1 2 2v7l-2 5-10 7-10 9-8 9-4 9-1 5v22l2-1 4-20 8-16 10-13 12-9 9-3h8l3 3v7l-7 12-4 5-7 6-4 7-4 11-1 5v10l3 8 5 8 7 4 4 1h7l10-5 8-10 10-18 10-11 7-5 9-1 4 5v11l-9 13-7 10-10 19-3 11-5 12-3 10-7 11-4 5-14 8-3 1v2l-5 4h-2l-2 4-3 1v2l11 4-1 5-7 18-1 4 11 3 1 2-13 34-12 36-11 41-7 39-6 45-2 17h-106l4-55 5-35 10-47 9-35 13-40 11-29 3-6 7 1 8 2 1-6 7-19 6 1 5 2-3-20-5-20-9-27-1-4v-16l4-11 4-7 3-13 5-10 8-10 10-9 14-9 11-5z" fill="#53C3D0"/>
<path transform="translate(1642,566)" d="m0 0h7l8 6 10 11 8 10v2h2l4 7 9 12 2 4 3-8 4-5h10l10 3 3-6 2-2 6-1 7 3 7 5v2h3l1-4 7-5h6l8 6 10 14 2 5h2l8 16 6 18 3 17v8l-3 14v6l11 21 5 8 2 11 6 15 15 36 7 20 6 16 15 46 12 44 8 37 5 28 4 31v7h-65l-3-17-7-41-7-31-7-27-2-6-4-13-4-10-4-13-5-14-3-8-5-11-6-17-9-21-4-8-5-13-8-13-3-12-8-18-12-4-16-8-8-6-12-5-18-6-9-4-8-4-9-7v-2h-2v-5l6-6 7-2h10l17 4h5l2-3v-7l-6-15-10-17-15-22-1-3h-2l-6-9-11-13-3-6v-7l3-5z" fill="#FED0A2"/>
<path transform="translate(353,964)" d="m0 0h534l10 42 3 13v5h-555v-10l5-37 2-12z" fill="#56A278"/>
<path transform="translate(553,197)" d="m0 0h299v103h-299z" fill="#383838"/>
<path transform="translate(1809,926)" d="m0 0h1l9 40 7 41 2 17h-4l-6-34-4-16-1-7 1-2-8 1 2 8v5l-2-3-2-10-83-1h-641l-74-1-1 2-3-13-4-22 1 10 4 23 5 20-1 4-3-9-3-12-2 1-4-20-3-16-2-4 9-1h785z" fill="#9C5945"/>
<path transform="translate(852,164)" d="m0 0h3l1 28 651 1 1-4 3 3 301 1-1 4h-301v103h338l1 4-338 1-1 531-4-1v-531l-291 1-1 391-4-1v-391h-354v431l-4 1-1-1v-431h-298v457h-5v-457h-330v-4h330v-103h-329l-1-4 330-1 1-2h3l1 2h298zm-299 33v103h299v-103zm302 0v103h355v-89h4v89h292v-103z" fill="#E3F4F1"/>
<path transform="translate(347,923)" d="m0 0 1 4h533l5 33v5h-533l-4 26-4 33h-12l1-17 7-52z" fill="#9C5945"/>
<path transform="translate(1642,566)" d="m0 0h7l8 6 10 11 8 10v2h2l4 7 9 12 2 4 3-8 4-5h10l10 3 3-6 2-2 6-1 7 3 7 5v2h3l1-4 7-5h6l8 6 10 14 2 5h2l8 16 6 18 3 17v8l-3 14v6l11 21 5 8v7l-15 11h-2l-2 5-6 7-2 1h-14l-17 5h-3l-1 2-6-10-3-12-8-18-12-4-16-8-8-6-12-5-18-6-9-4-8-4-9-7v-2h-2v-5l6-6 7-2h10l17 4h5l2-3v-7l-6-15-10-17-15-22-1-3h-2l-6-9-11-13-3-6v-7l3-5z" fill="#FED0A2"/>
<path transform="translate(977,569)" d="m0 0 9 1 6 7v8l-7 27-6 35-1 11v20l3 7 5 1 5-2v-2l5-2v-2l12-7 3-1h12l5 4-1 7-8 12-11 12-11 11-7 6-10 16-12 13-6 7-1 3 7 1v28l-18 1h-61l-1-1v-27l5-2-1-7-8-10-5-11-4-17-1-6v-25l4-24 3-9 6-5h7l5 3h3l4-10 8-6 6 1 8 4 2-4 6-5 2-1h7l6 5 2 3 1-1 4-24 6-25 5-12 5-5z" fill="#FED0A2"/>
<path transform="translate(361,596)" d="m0 0 6 1 2 2v7l-2 5-10 7-10 9-8 9-4 9-1 5v22l2-1 4-20 8-16 10-13 12-9 9-3h8l3 3v7l-7 12-4 5-7 6-4 7-4 11-1 5v10l3 8 5 8 7 4 4 1h7l10-5 8-10 10-18 10-11 7-5 9-1 4 5v11l-9 13-7 10-10 19-3 11-5 12-3 10-7 11-4 5-14 8-3 1v2l-5 4h-2l-2 4-3 1v2l11 4-1 5-8 21-5-1-21-8-34-11-15-4-1-2 8-23 1-2 6 1 5 2-3-20-5-20-9-27-1-4v-16l4-11 4-7 3-13 5-10 8-10 10-9 14-9 11-5z" fill="#FED0A2"/>
<path transform="translate(378,555)" d="m0 0h104l1 6v86l-1 1h-26l-11-1-1 2-1-1-9 1-10 8-7 9-11 19-8 9-9 4h-7l-8-3-6-5-5-10-1-4v-10l3-11 6-12 10-10 7-11 1-2v-7l-2-2-8-1-1-4z" fill="#9B467E"/>
<path transform="translate(1286,57)" d="m0 0 627 1 15 1 1 4v900l-1 1h-38v-1l36-1v-212l1-166v-524h-49l-9 1-9-1-8 1-10-2v2l-13 1-17 1h-27l-1 1h-879l-7-1h-17l-3 1-18-1-4 1h-609l-8-1-2 1-3-1h-17l-1-1-27-1-8-1h-57v-1l25-1z" fill="#9C624B"/>
<path transform="translate(1564,347)" d="m0 0h103l2 2v90l-1 1h-101l-4-2v-90z" fill="#DF1953"/>
<path transform="translate(1705,441)" d="m0 0 13 1 56 9 27 5 7 1 1 3-4 30-9 52-2 6h-10l-43-7-46-8-4-1v-10l9-55 4-23z" fill="#DC1B54"/>
<path transform="translate(699,510)" d="m0 0h6l1 1 1 25 1 67-12 1-58 2h-34l-1-1-2-49-1-42 5-1z" fill="#EF842B"/>
<path transform="translate(725,466)" d="m0 0 50 2 53 3 1 4-1 26-1 9-2 52-1 2h-12l-81-4-11-1-1-1 2-52 2-35z" fill="#EE842B"/>
<path transform="translate(346,339)" d="m0 0h4l6 22 15 65-1 3-31 7-54 13-16 3-2-6-12-51-6-28v-5l9-3 64-15z" fill="#9C467E"/>
<path transform="translate(259,482)" d="m0 0 18 1 74 11 12 2-1 10-9 56-4 24-1 1h-9l-64-10-29-5-1-4 7-43 6-42z" fill="#9C467E"/>
<path transform="translate(1154,543)" d="m0 0 3 1 15 71 3 14-1 5-90 19-11 2-2-6-12-57-5-23v-5l71-15z" fill="#02ADF0"/>
<path transform="translate(492,409)" d="m0 0h7l2 1 1 4 3 82v5l-1 1-84 3h-20l-1-14-2-55v-23l30-2z" fill="#9C467F"/>
<path transform="translate(905,370)" d="m0 0h106v92h-105z" fill="#01ADF0"/>
<path transform="translate(1051,385)" d="m0 0 71 9 29 4 3 1-1 16-9 69-1 6-36-4-62-8-6-2 1-13 9-66 1-11z" fill="#02ADF0"/>
<path transform="translate(628,362)" d="m0 0h105v92h-105z" fill="#F1862A"/>
<path transform="translate(1254,345)" d="m0 0h14l24 2 64 4 3 1-1 16-3 44-3 32-20-1-52-4-32-2v-13l2-32 3-34z" fill="#FCC815"/>
<path transform="translate(1438,453)" d="m0 0h10l1 1 2 23 2 14 2 21 2 17v15l-37 4-22 2-6 1-16 1-14 2h-9l-4-40-2-19-2-17v-15l1-1 24-2 22-3 28-3z" fill="#FCC815"/>
<path transform="translate(1650,500)" d="m0 0h8l4 27 4 41v14l-5-4-7-8-5-3h-7l-6 3-2 4v7l6 11-3 2-26 4-28 3h-20l-2-7-6-64-1-21 17-2 54-5z" fill="#DC1B54"/>
<path transform="translate(934,504)" d="m0 0h29l75 2v91l-1 1h-33l-13-1 1-7v-15l-5-3-4-2-9 1-5 6-5 13-2 6-2 1h-27v-75z" fill="#02ADEF"/>
<path transform="translate(887,790)" d="m0 0 59 1v1l-38 1-4 9-3 15-1 16v13l2 31 4 32 8 47 8 41 5 22v5h-27l-13-57-3-14-4-26-1-2-6-66v-67l1-1z" fill="#E3B83A"/>
<path transform="translate(445,647)" d="m0 0h11l4 2 2 5v7l-7 11-10 14-8 15-6 17-4 10-5 13-7 10h-2l-1 3-15 10-8 8-3 2-1 3 9 2 1 3-3 9-5 12-1 5 11 2-1 7-8 20-7 20-3 9-4 11-7 25-4 17-3 9-12-1v-8l10-37 12-36 13-34-3-2-8-3 1-6 8-21-9-2-3-2 6-7 5-4h2v-2l10-6 8-5 7-11 4-8 4-13 4-10 3-9 9-17 12-16 3-5v-11z" fill="#1D1919"/>
<path transform="translate(1640,671)" d="m0 0h9l-1 3-7 6-1 5h2l5 5 7 5 9 4 20 7 10 4 6 3 11 7 14 7 10 3 7 14 3 10 3 8 8 14 4 11 5 10 13 32 4 10 4 12 5 12 4 11 4 14 4 10 2 9 3 8 2 8v4h-15l-2-7-11-35-7-19-10-28-11-28-4-11-5-11-5-13-8-16-4-9-5-12-5-7-16-8-9-5v-2l-5-1-26-11-25-10-11-8v-6l5-5z" fill="#1D1E20"/>
<path transform="translate(251,878)" d="m0 0 6 5 2 3v7l2 9v7h2l1 7 5 1-1 8-4 1-5-2-2 9-1 5h-2v9l1 4-1 5v11l1 6h3l2 5-5 40-1 6h-27l4-55 5-35 10-47 2-8 1 3h3z" fill="#24B3D7"/>
<path transform="translate(377,637)" d="m0 0h3l-1 10h52v4l-9 8-7 10-9 16-8 9-9 4h-7l-8-3-6-5-5-10-1-4v-10l3-11 6-12 5-5z" fill="#373837"/>
<path transform="translate(958,761)" d="m0 0 10 1v28l-18 1h-61l-1-1v-27l8-1h25z" fill="#FEF9DD"/>
<path transform="translate(305,755)" d="m0 0 6 1 16 6 37 13 17 5-1 5-8 21-5-1-21-8-34-11-15-4-1-2 8-23z" fill="#FEF9DD"/>
<path transform="translate(977,569)" d="m0 0 9 1 6 7v8l-7 27-6 35-1 11v20l3 7 5 1 5-2v-2l5-2v-2l12-7 3-1h12l5 4-1 7-8 12-11 12-11 11-7 6-10 16-12 13-6 7-1 3-3 1h-34v-1l33-1 4-5 3-6 10-11 13-19 13-13 7-8 4-5 3-14-8 1-15 9h-8l-6-3-4-6-1-7v-16l4-31 3-14 1-13 1-7-1-3-3-1h-5v2h-2l-4 18-5 20-5 10h-1v-10l7-34 5-15 4-6 3-3z" fill="#FEDDB1"/>
<path transform="translate(384,776)" d="m0 0 10 3 1 3-3 9-5 12-1 5 11 2-1 7-8 20-7 20-3 9-4 11-7 25-4 17-3 9-12-1v-8l10-37 12-36 13-34-3-2-6-2 2-1 1-6 3-3 5-11 2-4v-4l-3-1z" fill="#1D1E21"/>
<path transform="translate(1806,723)" d="m0 0 4 4 3 6v7l-15 11h-2l-2 5-6 7-2 1h-14l-17 5h-3l-1 2-6-10-2-9 4-1 14-9 4-6 7-6 3-1 14-1z" fill="#56A27A"/>
<path transform="translate(856,197)" d="m0 0h650v7h-3l-5-2-9-2h-24l-3-1-1 2-6-1h-7l-7 1v-2l-7 2h-3l-5-1h-17l-5 1-7-1-12 1-5-1-7 1-14-1-12 1v-2l-9 1-3 1-8-1-9 1h-6v-2l-9 1-6 1v-2l-5 1-2-1-1 2v-2l-9 1-3 1h-3v-2l-9 2-9-1-5 1v-2l-6 1h-122l-7 1-5-1h-31l-6 1h-7l-4-1-9 1-8-1-3 1h-15l-5-1h-108l-2 1-7-1h-42l-6 5-1 11h-1z" fill="#2C282A"/>
<path transform="translate(983,789)" d="m0 0h10l1 59 2 41 2 21v17l-11 1-2-12-4-47v-75z" fill="#1E1E21"/>
<path transform="translate(375,637)" d="m0 0 2 1-7 8-4 9-3 11v10l3 8 5 8 7 4 4 1h7l10-5 8-10 10-18 10-11 7-5 9-1 4 5v11l-9 13-7 10-10 19-3 11-5 12-3 10-7 11-4 5-14 8-3 1v2l-5 4h-2l-2 4-3 1v2l-9-1-3-2h8l4-2v-2l8-7 9-7 7-4 6-5 6-12 6-15 7-20 8-16 7-12 2-10v-5l-6 2-7 8-8 13-6 10-5 5-11 7-12 1-14-7-6-8-2-7v-14l4-16 5-8z" fill="#FCDBAF"/>
<path transform="translate(1154,543)" d="m0 0 3 1 2 10-1 4v-2l-60 13-38 7-4 1-2-8v-5l71-15z" fill="#23B3D8"/>
<path transform="translate(1025,670)" d="m0 0 13 1 3 2v6l-6 9-8 10h-2l-1 3-6 5-9 11-11 13-11 14-15 15v2l3 2v8l-1 9 1 3 5 1 1 4-13 1v-27l-7-1 1-5 4-2 2-4 7-7 10-14 6-9 15-14 9-9 10-14 2-5-1-5z" fill="#1D191A"/>
<path transform="translate(1643,528)" d="m0 0h4v13l-29 4-3 1v5l-1 1-21 1v2l-11 1h-10l-1-1v-20l17-2 20-2 19-1z" fill="#9B4B73"/>
<path transform="translate(1639,592)" d="m0 0 4 2 9 11 1 4h2l20 30 7 12 6 15v7l-3 4-10-1-3-1v-2h-3l2-5-1-6-5-11-8-14-7-11v-3h-2l-3-4v-3h-2l-11-15v-2h-2v-5z" fill="#1F1A1B"/>
<path transform="translate(736,494)" d="m0 0 77 4-1 5h-3v2l3-1 1 5-1 1-34 1v6h-17l-26-2 1-5z" fill="#B97449"/>
<path transform="translate(689,538)" d="m0 0h4v13l-31 1-3 2-2 6-21 1-8 1h-13v-12l1-9 15-1z" fill="#C07849"/>
<path transform="translate(1438,453)" d="m0 0h10l1 1 1 15h-1v-5l-10 2-41 4-18 2-19 2h-13l-1-3-1 7h-1v-15l1-1 24-2 22-3 28-3z" fill="#E1B63A"/>
<path transform="translate(905,370)" d="m0 0h106v92h-10v-1h9v-80l-5 1h-99z" fill="#22B2D8"/>
<path transform="translate(1254,345)" d="m0 0h14l24 2 64 4 3 1-1 16h-1l-1-6-1 1h-17l-63-4-17-2-4-1z" fill="#E3B839"/>
<path transform="translate(699,510)" d="m0 0h6l1 1v22h-1v-11l-40 2-40 1h-19l-2-7h-2v38h-1l-1-42 5-1z" fill="#CD8346"/>
<path transform="translate(642,389)" d="m0 0h77v13l-65 1-2 1 32 1-1 5h-42v-16z" fill="#C87D4C"/>
<path transform="translate(1745,764)" d="m0 0h3l7 12 4 11 5 10 13 32 4 10 4 12 5 12 4 11 4 14 4 10 2 9 3 8 2 8v4h-15l-2-7-7-22v-5l4 4 7 16 2 1-1-7-2-5-6-21-5-13-3-9-5-13-5-10-1-7-3-1v-5l-2-1 1-2-6-16-9-19-4-11-2-5z" fill="#1C1818"/>
<path transform="translate(934,504)" d="m0 0h29l75 2v64h-1v-53h-44l-59-1z" fill="#22B2D8"/>
<path transform="translate(1811,740)" d="m0 0 3 1 7 18 15 36 7 20 6 16 15 46 12 44 8 37 5 28 4 31v7h-3l-2-12-2-19-3-16-2-9-1-13-2-8-3-17-4-8-4-14-3-12-4-14-6-18-5-17-8-21-9-24-5-14-6-16-8-19-1-3-9-2v-2z" fill="#FEDCAF"/>
<path transform="translate(628,362)" d="m0 0h105v92h-1v-81h-99l-2-4v-3h-2v10h-1z" fill="#D08645"/>
<path transform="translate(347,923)" d="m0 0 1 4h10l1 4-5 25-6 42-3 26h-12l1-17 7-52z" fill="#3A3838"/>
<path transform="translate(989,597)" d="m0 0 12 1-3 14-6 39-2 18v9h4l-1 4h-2v2l-5 3-5-1-2-2-2-6v-20l3-24 6-31 2-5z" fill="#1F191A"/>
<path transform="translate(1061,387)" d="m0 0 15 1 75 10 3 1-1 16-1-4-6-1-68-9-22-3-3-2h2l-2-8z" fill="#22B2D8"/>
<path transform="translate(725,466)" d="m0 0 50 2 53 3 1 4-8-2 3 7-4 2-34-1-34-2-24-1-2-5-1 1-1 7h-1v-10z" fill="#CA8146"/>
<path transform="translate(1640,671)" d="m0 0h9l-1 3-7 6-1 5h2l5 5 7 5 9 4 20 7 10 4 6 3 11 7 14 7 10 3 7 14 3 10 2 7h-3l-4-5-1-5h-2l-4-9-2-4-3-1-2 1-1 2-7-9-16-8-9-5v-2l-5-1-26-11-25-10-11-8v-6l5-5z" fill="#1E191A"/>
<path transform="translate(361,596)" d="m0 0 6 1 2 2v7l-2 5-10 7-10 9-8 9-4 9-1 5-1 17-2-2-1-9v-11l4-9 4-5h2l2-4 4-3h2v-3l3-3 9-5 2-2-1-7-9 2-10 5-11 9-9 8-7 11-4 14-2 2-2 1-4 17v15l2 10 2 7 6 16v8h2l2 10 2 3v13l2 5-6-1v-9l-5-25-11-34-1-4v-16l4-11 4-7 3-13 5-10 8-10 10-9 14-9 11-5z" fill="#FEDDB0"/>
<path transform="translate(1265,372)" d="m0 0h9l35 3 11 1 23 1v5l-1 3v5h-11l-62-4-4-1z" fill="#DDAC39"/>
<path transform="translate(1061,414)" d="m0 0 26 3 49 6 1 1v7l-2 5-13-1-63-8v-8z" fill="#23B3D8"/>
<path transform="translate(1006,959)" d="m0 0h6v2l5 1 786 1 1 2h-724l-74-1-1 2v-6z" fill="#9C624B"/>
<path transform="translate(1642,566)" d="m0 0h7l8 6 10 11 8 10v2h2l4 7 9 12-1 3-7-5-12-18-10-12-3-5-7-5h-5l1 7-3 3h-3l1 5 9 8 10 14 13 19 11 18 6 12 2 13-2 6-5 3-12-2-5-2-2-2 9 1 10 1 2-3v-7l-6-15-10-17-15-22-1-3h-2l-6-9-11-13-3-6v-7l3-5z" fill="#FDDCAF"/>
<path transform="translate(218,197)" d="m0 0h330v8l-2 4-1-4-5-3-3-2h-47l-8 1h-31l-1-1-4 1-12-1-3 1h-3v-2h-2l-1 2-6-1h-5l-3 1h-44v-2l-9 2-11-1h-84l-25-1h-17z" fill="#2C292B"/>
<path transform="translate(1758,767)" d="m0 0h5l-2 7 2 9 16 38 6 15 20 56 8 28 2 20 4 13 2 20-2-1-6-29-7-28-8-26-4-10-4-13-5-14-3-8-5-11-6-17-9-21-4-8-5-13-1-5z" fill="#FCDAAE"/>
<path transform="translate(1728,599)" d="m0 0 8 2 8 6v2h3l1-4 7-5h6l8 6 10 14 2 5h2l8 16 6 18 3 17v8l-3 14v6l5 10-1 3-3-4v-2l-4-2-1-2v-12l2-10v-14l-4-15-5-12-8-16-7-10-6-8-5-3-6 1-6 3-11-2-5-2-7 1-4 2-16 1-9 2-2 4v-6l5-6h10l10 3 3-6 2-2z" fill="#FDDCAF"/>
<path transform="translate(988,928)" d="m0 0h2l3 4 3 16 4 17 2 2 5 20-2-12-5-21-3-18v-6l2 1 6 32 13 52 2 9h-12l-6-22-5-24-3-9-2-15-4-20z" fill="#43403C"/>
<path transform="translate(1715,469)" d="m0 0 5 2 53 9 16 2 1 3-1 8-10-1-64-9-1-5v-8z" fill="#9C575A"/>
<path transform="translate(1011,670)" d="m0 0h12l5 4-1 7-8 12-11 12-11 11-7 6-10 16-12 13-6 7-1 3-3 1h-34v-1l33-1 4-5 3-6 10-11 13-19 13-13 7-8 4-5 3-14-8 1-15 9h-8l3-3 5-2v-2l5-2v-2l12-7z" fill="#FEDDB1"/>
<path transform="translate(377,637)" d="m0 0h3l-1 10h2l-1 10-1 5v16l2 6 3 6h3v2l3-1 1 5-2 2h-7l-8-3-6-5-5-10-1-4v-10l3-11 6-12 5-5z" fill="#211E1D"/>
<path transform="translate(1809,926)" d="m0 0h1l9 40 7 41 2 17h-4l-6-34-4-16-1-7 1-2-8 1 2 8v5l-2-3-9-43-2-6z" fill="#3F3E3C"/>
<path transform="translate(938,629)" d="m0 0h7l6 5 2 5-12-2-9 3-7 1-9 1-6 4-5 5h-2v2l-17 1-3 9-3 12-3 31 1 12 3 11 4 6 8 16 4 7v3l24 1v1h-25l-3-2-1-7-8-10-5-11-4-17-1-6v-25l4-24 3-9 6-5h7l5 3h3l4-10 8-6 6 1 8 4 2-4 6-5z" fill="#FEDCAF"/>
<path transform="translate(1511,197)" d="m0 0h300v1l-14 1-48 1-7-1-1 2-5-1-16 1h-53l-6-2-1 2-2-1h-26l-3-1-1 2v-2l-5 1h-76l-31-1v2h-3l-1 23h-1z" fill="#2C292B"/>
<path transform="translate(1580,375)" d="m0 0h73l1 2v7l-1 1-33 1h-41v-10z" fill="#353334"/>
<path transform="translate(650,507)" d="m0 0h49l3 1 5 1 2 14v7l1 3v64h-1l-1-8-3-78-75 2-30 1 1 4 2 68v13l-2-2-2-33-2-16v-7l1-3v-7l-1-2 1-9 1-7 2-2 27-1 12-2z" fill="#2D2C2E"/>
<path transform="translate(1650,673)" d="m0 0h8v2l-5 3-1 5 7 8 10 5v2l7 1 13 5 9 3 4 2v2l5 2 20 11 5 3 10 9 5 9 1 3h3v2l-5 3-3-1-9-21-12-4-16-8-8-6-12-5-18-6-9-4-8-4-9-7v-2h-2v-5l6-6z" fill="#F9DBAF"/>
<path transform="translate(982,790)" d="m0 0h4v70l1 15 3 21 2 15 1 11 1 5-7 1-2-12-4-47v-75z" fill="#181315"/>
<path transform="translate(354,957)" d="m0 0 4 2 1 3 523 1 4 2h-498l-35-1z" fill="#9C634C"/>
<path transform="translate(1775,732)" d="m0 0h7l6 3 5 6 1 7-3 8-4 4-4 1h-7l-7-4-4-7v-9l4-5h2v-2z" fill="#F9FCF8"/>
<path transform="translate(553,197)" d="m0 0h298v5l-2 1-5-2-1-1h-127l-161-1-1 4z" fill="#2C2729"/>
<path transform="translate(277,822)" d="m0 0 4 5 2 1-2 5-1 4v2l4 2 2 2-4 15-2 2h-3l-2-7 4-4v-4h-3v5l-2 2-2 5v6l-2 5h-2l-1 3-2-3-1-8h2l1-3-1-3-4 8-3 2-2-4 4-14 1-3 2 2v-3l-3-1h2l1-5 2-1v2h3l1-6 5-8z" fill="#26B4D7"/>
<path transform="translate(626,362)" d="m0 0h1v92l106 1v2h-2l-1 2h-3-29l-52-1h-17l-3-2v-4h-2l-1-8v-56l2-6z" fill="#211D20"/>
<path transform="translate(736,494)" d="m0 0 77 4-1 5h-3v2l3-1v2h-12l-64-3z" fill="#C8824F"/>
<path transform="translate(376,574)" d="m0 0h1l1 24 1 13-10 4-12 9-9 13-7 14-4 20-3 1-1-7v-15l3-10 6-9 9-9h2l1-3 11-8h2l2-14h6v-11z" fill="#262020"/>
<path transform="translate(1457,543)" d="m0 0 2 1-4 4-7 2-17 2-3 1-24 2-5 1-10 1h-10l-7 2h-17l-3-2 1-4h9l14-2 16-1 15-2 29-3z" fill="#2F2829"/>
<path transform="translate(393,235)" d="m0 0h4l-1 4-13 10 1 5 5 10v2l-4-1-7-9-2-1v9l-4-1-2-2-5 5h-12l-10-5-3-5v-9l5-5 6-4 3-1h8v3l-9 1-6 5-1 2v7l4 5 6 2h7l7-5 1-3 1-11 2-3 3 1v6l8-6 6-5z" fill="#F3FAF4"/>
<path transform="translate(856,305)" d="m0 0h303v2h-46l-2 1-4-1-5 1-4-2v2l-5-1h-112l-16 1-3-1-17 1-4-1h-78l-4 2-1 2-1 11h-1z" fill="#2C292B"/>
<path transform="translate(1624,236)" d="m0 0h10l7 5 3 6-1 9-8 7-7 2-5-1-1-1v-21l-1-5z" fill="#F2F9F4"/>
<path transform="translate(727,236)" d="m0 0h10l7 5 3 6v7l-7 8-10 3-4-1-1-3v-24z" fill="#F7FBF6"/>
<path transform="translate(371,847)" d="m0 0 1 4-1 7h-2v6l-2 4-5 17-1 6-6 21-1 10-1 2 4-1 4-18 6-18 3-1-1 10-4 15-4 16-3 1-10-1v-8l10-37 11-33z" fill="#181416"/>
<path transform="translate(349,928)" d="m0 0h8l-4 19-3 16v8l-2 7-1 11h-2l-2 23-2 12-5-1 3-16 1-26 3-17 2-5 4-23 1-5z" fill="#9C467D"/>
<path transform="translate(1633,601)" d="m0 0 6 3 5 1 5 5 3 6 5 7v2h2l4 5 4 8 3 7 5 10 4 6 1 5-2 2-5-5v-3h-2l-1 2-5-11-8-14-7-11v-3h-2l-3-4v-3h-2l-10-13z" fill="#1D1E21"/>
<path transform="translate(1764,742)" d="m0 0h1l2 10 3 5 6 3h10l-2 2-12 2-17 5h-3l-1 2-6-10-2-9 4-1 13-8 3 1z" fill="#56A27C"/>
<path transform="translate(300,236)" d="m0 0 9 1 4 3v5l-4 3 1 4 2 1-1 7-6 6h-7l-4-3v-24l2-2z" fill="#F4FAF4"/>
<path transform="translate(1627,566)" d="m0 0h6l2 2 2 1-3 5v7l6 11-3 2-17 2 3-1-6-12v-9l4-6z" fill="#9C5847"/>
<path transform="translate(1840,803)" d="m0 0h3l9 21 9 28 8 25 3 11v7l-2 2-2-2-10-34-12-36-5-13v-5z" fill="#2A2729"/>
<path transform="translate(445,674)" d="m0 0 1 3-8 12-3 7-2 7h2l1-2-1 5-4 12-4 10-5 13-7 10v-3-2l-3 3h-2l1-5 4-8 6-15 5-13 5-11 4-8 6-11z" fill="#1D1E21"/>
<path transform="translate(967,769)" d="m0 0h1v21l-18 1h-61v-1l19-1v-4l-2-1h56l4 1z" fill="#FAD0A2"/>
<path transform="translate(1579,374)" d="m0 0h5l-4 2-1 10 74-2 2-1-1 3-28 1-6 2-1 5-16 1h-24l-1-1v-19z" fill="#9C467D"/>
<path transform="translate(998,601)" d="m0 0h2l-2 11-6 39-2 18-2 2-4-4v-16l5-23 2-9 2-15z" fill="#1D1E21"/>
<path transform="translate(1017,238)" d="m0 0h8l3 4 1 3v8l-7 8h-9l-5-4-1-2v-8l6-7z" fill="#F0F9F4"/>
<path transform="translate(695,239)" d="m0 0h6l3 3 1 4v8l-6 7-2 1h-8l-6-6v-7l4-6 4-3z" fill="#F0F9F5"/>
<path transform="translate(1658,239)" d="m0 0h7l3 5v11l-4 5-4 2h-7l-6-5-1-8 4-6 4-3z" fill="#F5FAF5"/>
<path transform="translate(1564,347)" d="m0 0h103l2 2v90l-1 1h-101v-1l100-1v-89h-100l-2 1-1 88h-1v-90z" fill="#9C467E"/>
<path transform="translate(761,239)" d="m0 0h7l3 4v11l-4 6-4 2h-7l-6-5-1-2v-6l8-9z" fill="#F3FAF5"/>
<path transform="translate(430,240)" d="m0 0h10l3 6v8l-5 7-5 2-7-1-5-5v-8l6-7z" fill="#F2F9F3"/>
<path transform="translate(872,791)" d="m0 0h1l1 68 6 68-6-1v-14l-2-24-1-8v-88z" fill="#2E2C2E"/>
<path transform="translate(379,610)" d="m0 0h8l3 3v7h-2v-2h-13l-11 7-3 3h-2l-1 4h-2v2h-2l-1 4-5 7-4 10-4 7h-1v-8l5-12 9-14 5-6 12-9z" fill="#F5D7AC"/>
<path transform="translate(1259,438)" d="m0 0h21l52 4 20 2v3l-4 1h-23l-14-2h-14v-2h-7v-2l-32-1-3-2z" fill="#232022"/>
<path transform="translate(947,531)" d="m0 0 77 1v5l-6 1-64-1-7-1z" fill="#2C2D2F"/>
<path transform="translate(615,550)" d="m0 0 1 3 12-1h31l-1 7-1 1-21 1-8 1h-13z" fill="#C57E4A"/>
<path transform="translate(332,606)" d="m0 0m-1 1m-2 1 2 1v2h-3l-1 5-7 7-9 14-3 10-2 7-8 16-2-4 1-8 6-16 2-8 7-11 10-10 3-1 1-3z" fill="#363130"/>
<path transform="translate(986,237)" d="m0 0 13 1 5 4v4l-8 6 6 8 4 5v2l-6-1-7-10-4-2v9h-5v-15z" fill="#EFF8F4"/>
<path transform="translate(1144,573)" d="m0 0h6l-1 4-16 4-53 11h-6l-1-4 28-6z" fill="#212224"/>
<path transform="translate(642,389)" d="m0 0h77l-1 5h-76z" fill="#221F21"/>
<path transform="translate(1061,237)" d="m0 0 14 1 5 5-2 4-7 5-1 2 4 2 7 9-1 2-4-1-8-11h-3v8h-6l1-17z" fill="#F2FAF5"/>
<path transform="translate(378,642)" d="m0 0h1v5h2l-1 10-1 5v16l4 12-4-2-10-8-2-5 2-15 3-6 1-4 3-3h1z" fill="#1E1E21"/>
<path transform="translate(941,596)" d="m0 0h21l-2 12-6 30-5-5-5-4-5-1v-1h5v-2l5-3 2-7 2-9v-4h-2l-2-2h-7v-1l-9-1v-1z" fill="#312F2E"/>
<path transform="translate(463,445)" d="m0 0h25l1 4-27 2-49 1-1-4 2-1z" fill="#333233"/>
<path transform="translate(478,437)" d="m0 0h10v4l-3 1-42 2h-31v-4l11-1z" fill="#302D2E"/>
<path transform="translate(719,559)" d="m0 0h12l81 4 14 1-1 2-11 1 3 2h-9l-3-1-11-2-13-1 1 2h-10l-2-2-9-1h-25l-5-1-12-2z" fill="#252325"/>
<path transform="translate(1434,480)" d="m0 0h4v5l-25 3-48 4h-4v-4l20-3 34-3z" fill="#241D1D"/>
<path transform="translate(1266,372)" d="m0 0 16 1 27 2 11 1 23 1v5h-13l-20-1-16-2-28-2z" fill="#282120"/>
<path transform="translate(341,376)" d="m0 0 4 1-1 4-17 4-32 8-20 4h-5v-4z" fill="#302D2E"/>
<path transform="translate(1147,581)" d="m0 0h4v4l-44 10-25 5h-7v-4l66-14z" fill="#202124"/>
<path transform="translate(932,236)" d="m0 0h3v28l-5 1v-16h-2l-2 4-4 6-2 5h-6l1-23 4-1 1 1v11h2l2-4 7-11z" fill="#EDF8F3"/>
<path transform="translate(1689,236)" d="m0 0h3v29h-5v-14l-5 4-5 9-5 1v-23l4-1 1 1v10l5-5z" fill="#F4FAF5"/>
<path transform="translate(268,510)" d="m0 0 11 1 64 10v4l-16-1-52-8-7-1z" fill="#302F30"/>
<path transform="translate(1436,488)" d="m0 0h2v5l-36 4-4 1-17 1-5 1h-14v-4l48-5z" fill="#221C1D"/>
<path transform="translate(1511,197)" d="m0 0h145v2l-19 1-8-1-1 2v-2l-5 1h-76l-31-1v2h-3l-1 23h-1z" fill="#2C2729"/>
<path transform="translate(1061,414)" d="m0 0 26 3 49 6 1 4-1 1-12-1-63-8-1-4z" fill="#1C1A1C"/>
<path transform="translate(920,405)" d="m0 0h77v4l-6 1h-23l-48-1z" fill="#1E1E21"/>
<path transform="translate(341,368)" d="m0 0 2 1-1 4-37 9-33 7h-4l1-4 59-14z" fill="#2E2E2F"/>
<path transform="translate(978,567)" d="m0 0 7 1 2 1v-2l7 1 8 6 2 3v11l-2 9h-11l1-7v-15l-5-3-9-3z" fill="#24B3D7"/>
<path transform="translate(920,397)" d="m0 0h77v4l-3 1h-18l-56-1z" fill="#212225"/>
<path transform="translate(1664,548)" d="m0 0 2 4 1 1 1 15 1 10 8 10 5 7 2 1v3l4 2 2 2-1 1 8 1-1 5-3 9-3-2-3-6-10-13v-3h-2l-7-9-2-3-2-24z" fill="#2F2C2D"/>
<path transform="translate(947,540)" d="m0 0h77v5h-49l-28-1z" fill="#1D1C1E"/>
<path transform="translate(266,518)" d="m0 0 12 1 53 8 12 2v4l-14-1-52-8-10-2z" fill="#353535"/>
<path transform="translate(453,582)" d="m0 0h15l1 2-1 3-75 1-1-5z" fill="#383838"/>
<path transform="translate(889,295)" d="m0 0 10 1 6-1 5 1 19-1h29l7 2h9l3-1 8 1h13l4-1 2 1h7l4-1 10 2v1h-10l-1 1-57-1h-56l-15-1z" fill="#2D2E30"/>
<path transform="translate(938,629)" d="m0 0h7l6 5 2 5-12-2-9 3-7 1-9 1-6 4-5 5h-2v2l-3-1h2l2-8 4-6 6-4 6 1 8 4 2-4 6-5z" fill="#FDDDB1"/>
<path transform="translate(445,590)" d="m0 0h23l-1 5h-75v-4z" fill="#383838"/>
<path transform="translate(736,503)" d="m0 0h19l45 2 13 1-1 4h-19l-57-3z" fill="#1C181A"/>
<path transform="translate(1060,422)" d="m0 0 71 9 5 1-1 4-13-1-62-8z" fill="#1A1719"/>
<path transform="translate(1043,235)" d="m0 0h6v4l-5 2-4 7v11l2 2 7-1 1-5-7-1 1-4h13l-1 6-4 7-3 2h-10l-5-5-2-3v-7l8-13z" fill="#ECF7F2"/>
<path transform="translate(714,197)" d="m0 0h137v5l-2 1-5-2-1-1h-127l-2-1z" fill="#2C282A"/>
<path transform="translate(1382,236)" d="m0 0 7 1 2 4v7l-3 8-8 8-6 1-5-2-3-4v-12l3-9h4v22l7-2 4-7v-11z" fill="#F6FBF5"/>
<path transform="translate(902,901)" d="m0 0 2 3 4 25v5h2l10 52 7 33v5h-3l-3-13-4-20-3-16-3-13-5-31-2-9-2-12z" fill="#D99440"/>
<path transform="translate(1266,381)" d="m0 0h11l33 2 32 3v4h-11l-47-3-1-1-13-1-4-1z" fill="#231D1D"/>
<path transform="translate(717,397)" d="m0 0 2 1v4h-77v-4z" fill="#1F1B1C"/>
<path transform="translate(1273,235)" d="m0 0h8v3l-10 2-1 8h7l1 3-9 2-2 7 7-2 9-1-1 4-11 4h-6l-4-4v-8l3-10-1-7z" fill="#F6FBF5"/>
<path transform="translate(456,237)" d="m0 0h7v3l-5 3-4 7v10l2 2h6l2-2v-4l-7-1v-3l2-1h12l-2 9-4 5-5 2-8-1-5-5-1-8 6-12z" fill="#EFF8F3"/>
<path transform="translate(1286,236)" d="m0 0h6l5 12 4 9 2 1 3-11 3-6 5-5h2l-1 6-7 17-5 4h-6l-5-8-6-16z" fill="#F1F9F5"/>
<path transform="translate(690,546)" d="m0 0h3v5l-65 2h-12v-4l16-1z" fill="#1E181B"/>
<path transform="translate(737,494)" d="m0 0 76 4-1 5-70-4-5-1z" fill="#1C181A"/>
<path transform="translate(919,397)" d="m0 0 1 4h77v4h-77l-1 4z" fill="#24B3D7"/>
<path transform="translate(626,362)" d="m0 0h1v92h8v1l-6 1h-3v-4h-2l-1-8v-56l2-6z" fill="#28292B"/>
<path transform="translate(1430,485)" d="m0 0h7l-2 2 1 2-35 4-32 3h-7l-1-4 4-1 48-4z" fill="#EBB721"/>
<path transform="translate(1149,576)" d="m0 0 2 3v2l-71 15h-5l-1 2-1-7h7l67-14z" fill="#22B2D8"/>
<path transform="translate(722,467)" d="m0 0h1v21l-3 64-2 2-2-15v-13l1-4h-2l2-20 2-9 1-5 1-20z" fill="#2C282A"/>
<path transform="translate(689,538)" d="m0 0h3v5l-76 2v-4l15-1z" fill="#1C181A"/>
<path transform="translate(696,603)" d="m0 0h13l-2 4-3 1-19 1-6-1h-76v-2z" fill="#252325"/>
<path transform="translate(1713,477)" d="m0 0 6 1v1h-5l1 3 64 9 10 2v-3l-3-1h3l1-4v9h-8l-15-2-13-1-1 5h-8v-1l7-1-2-2-26-4-11-1-1 2 16 2 4 2-13-1-8-2 1-8z" fill="#964E7A"/>
<path transform="translate(931,624)" d="m0 0h3l-1 3 3 1v3l-7 6-1 2-5-1-5-3-6 1-5 4-5 11-5-1-1-3h2l1-4-2-1h2l2-5 8-5 10-1 4-2-7-1v-2l4-1 2 1h6z" fill="#323232"/>
<path transform="translate(384,776)" d="m0 0 10 3 1 3-3 9-5 12-1 5h2l-2 4-2 1-1-2-9-3 2-1 1-6 3-3 5-11 2-4v-4l-3-1z" fill="#1D1D20"/>
<path transform="translate(1713,235)" d="m0 0 5 1-1 3-13 1v7l11 1v3l-8 2v8l9 1v3h-16v-12h-5l-1-3 5-1v-10l1-2z" fill="#F3F9F3"/>
<path transform="translate(1460,235)" d="m0 0h10l-1 4-13 1-1 7h12v4l-8 2v8l10 1-1 3h-14l-1-1v-11h-6l1-4 3-1 2-12z" fill="#F4F9F2"/>
<path transform="translate(961,234)" d="m0 0 13 1 5 3 3 3-1 5-5 4-8 1-4-1v-3l9-1 2-4v-2l-7-2h-6l-1 1-1 25-3 1-2-1 1-28z" fill="#EEF8F3"/>
<path transform="translate(1092,235)" d="m0 0h12v3l-14 1 1 7 10 1-1 4-6 1-1 2v6l1 1h9v3l-3 1h-11l-2-1v-12h-6l1-3 4-1v-9l1-3z" fill="#F4FAF4"/>
<path transform="translate(1715,471)" d="m0 0 12 1 46 8 16 2v4l-19-2-25-4-30-6z" fill="#2B2729"/>
<path transform="translate(947,536)" d="m0 0 77 1-1 4h-32l-44-1z" fill="#28B4D7"/>
<path transform="translate(1714,479)" d="m0 0 13 1 50 8 12 2v3l-10-1-64-9z" fill="#2D282A"/>
<path transform="translate(325,236)" d="m0 0 6 1 1 9 3 10 2 6v2h-5l-2-6-2-1-1-10-2 2-5 17h-5l1-5 4-12 3-6z" fill="#F0F8F3"/>
<path transform="translate(675,236)" d="m0 0 5 1v4l-9 1-1 22h-6l-2-9v-9l1-3h-7v-3l7-2 10-1z" fill="#FBFCF6"/>
<path transform="translate(1643,528)" d="m0 0h3l-1 5-63 6h-9v-3l37-4z" fill="#2B2729"/>
<path transform="translate(1145,235)" d="m0 0h5v3l-10 4v4l12 6-1 6-6 6-5 1-5-2-2-5 9 1 3-3 1-3-10-3-4-4v-5l6-4z" fill="#F1F9F5"/>
<path transform="translate(972,761)" d="m0 0h9l1 24 1 5-1 4-1 61h-1v-65h-12v-1l13-1-1-4-5-1-2-5 1-14z" fill="#3E312C"/>
<path transform="translate(1329,235)" d="m0 0 5 1 6 23v4l-5-1-3-7-1-3v-6l-2 2-4 15-1 1h-5l6-19z" fill="#FAFCF7"/>
<path transform="translate(1423,236)" d="m0 0h21l1 4-12 2 1 23h-5l-2-2-1-14v-7l-3-2z" fill="#F7FBF6"/>
<path transform="translate(1121,235)" d="m0 0h5l-1 3-9 4h-2l3 5 10 4v7l-6 6h-9l-3-4v-2l9 1 3-3-1-3-8-3-4-4v-5l6-4z" fill="#F5FAF6"/>
<path transform="translate(1405,235)" d="m0 0 5 1 6 23v4h-4l-3-7-2-3 1-7-2 1-4 11-2 6h-5l6-19z" fill="#F8FBF5"/>
<path transform="translate(1039,476)" d="m0 0 52 7 49 6 3 1v-6h1v7l-26-2-28-1-19-3-3-2-29-5z" fill="#2A2A2C"/>
<path transform="translate(1646,528)" d="m0 0h1v9l-1-2-8 2-29 3-24 2h-6l1-3 2-1 53-5 10-1z" fill="#9D5363"/>
<path transform="translate(997,930)" d="m0 0 2 1 6 32 13 52 2 9h-2l-4-9-2-9-3-8-2-9-1-9-6-26-3-18z" fill="#443D3A"/>
<path transform="translate(628,607)" d="m0 0h53v2l-10 1h-9-1l-10 1h-14l-3 1h-19l-5-2 1-2z" fill="#2D2E30"/>
<path transform="translate(1038,507)" d="m0 0h1l1 17 1 7v17l-1 15-1 3 2 1h-2l2 8 2 6v6l-2 6h-2v3h-2v-26z" fill="#2D2E30"/>
<path transform="translate(1819,749)" d="m0 0 2 1 2 8 3 1 6 16 3 5 4 12 2 7-2 4v-2h-2l-11-28-5-13-2-4z" fill="#33322F"/>
<path transform="translate(466,442)" d="m0 0h22v3l-51 2h-25l1-3z" fill="#926857"/>
<path transform="translate(1250,375)" d="m0 0h1v17l-2 32-3 11-2-1-1-4v-11l3-14v-18l2-3z" fill="#2F2A2C"/>
<path transform="translate(1644,535)" d="m0 0h2l1 4-1 1-34 4h-13l-13-1v-1l12-2 40-4z" fill="#2C282A"/>
<path transform="translate(346,965)" d="m0 0 3 1-2 6-1 17-5 35-5-1 3-16 1-16 1-7 2-6 2-10z" fill="#56A278"/>
<path transform="translate(1010,662)" d="m0 0h10l10 3-3 3-10-3v2h5v2l-9 1-14 7-3 1v2h-2v-2h-4l-1-9 2 4 5-1 8-5 6-2z" fill="#2C2D2F"/>
<path transform="translate(920,413)" d="m0 0h42l-1 5h-41z" fill="#2A2A2C"/>
<path transform="translate(1415,451)" d="m0 0h9l8 1v1l-21 3-42 4h-10l4-3 16-1 4-2 19-1z" fill="#2A292B"/>
<path transform="translate(947,548)" d="m0 0h41l1 5h-38l-4-1z" fill="#2C2D2F"/>
<path transform="translate(1754,804)" d="m0 0 4 4 12 30 1 13-1-2h-2l-10-27-4-9-1-8z" fill="#171315"/>
<path transform="translate(283,517)" d="m0 0 12 1 40 6 5 2v2h-9l-47-7z" fill="#9C5662"/>
<path transform="translate(354,237)" d="m0 0h8v3l-9 1-6 5-1 2v7l4 5 6 2 7 1v3h-10l-10-5-3-5v-9l5-5 6-4z" fill="#F6FBF4"/>
<path transform="translate(218,197)" d="m0 0h95v2l-8 1h-42l-25-1h-17z" fill="#2B282A"/>
<path transform="translate(729,463)" d="m0 0h20l4 1 6 1 24 1h10l6 2v1h-24l-48-2v-2h2z" fill="#2A292B"/>
<path transform="translate(1264,389)" d="m0 0h20l5 1 16 1 2 1v4l-19-1-23-1z" fill="#291E1E"/>
<path transform="translate(903,234)" d="m0 0h7l1 1v15l-2 15-4-1-1-2z" fill="#F7FBF6"/>
<path transform="translate(401,236)" d="m0 0h5v25l10 2 2 4h-17l1-5-2-2z" fill="#F0F8F0"/>
<path transform="translate(1774,609)" d="m0 0 4 1 12 20 4 10 3 8v6l-1-2h-2l-5-12-6-12v-3h-2l-7-11-1-4z" fill="#2E3431"/>
<path transform="translate(1401,500)" d="m0 0h3v5l-30 3-5 1h-7v-5l26-3z" fill="#221C1C"/>
<path transform="translate(1398,549)" d="m0 0h7l-2 2-18 3-10 1 4 2-7 2h-17l-3-2 1-4h9l14-2 16-1z" fill="#2F2929"/>
<path transform="translate(1114,596)" d="m0 0h4v4l-16 4-19 4h-6l-1-4 28-6z" fill="#202123"/>
<path transform="translate(280,794)" d="m0 0 5 1 2 8-4 10 1 3-2 3h-3l-1 2-3-10v-7h2l1-5z" fill="#23B3D8"/>
<path transform="translate(1573,440)" d="m0 0h94l-2 2-36 1-55-1z" fill="#2C282A"/>
<path transform="translate(1059,431)" d="m0 0 18 1 23 3v5l-21-2-20-3z" fill="#1B181A"/>
<path transform="translate(1861,856)" d="m0 0 2 1 5 17 4 14v7l-2 2-2-2-10-34 1-4z" fill="#2F2E2D"/>
<path transform="translate(1579,383)" d="m0 0h75l-1 2-33 1h-41z" fill="#272426"/>
<path transform="translate(394,587)" d="m0 0h71v1l-38 1 18 1v1h-50z" fill="#9C467F"/>
<path transform="translate(1164,635)" d="m0 0h5l-4 2-20 5-18 4-7 2-10 2-33 6h-5l1-2 11-2z" fill="#2D2E30"/>
<path transform="translate(1e3 965)" d="m0 0 2 2 5 20 2 7 3 10 2 5 2 9 2 6h-8l1-2h2l-6-19-7-32z" fill="#56A278"/>
<path transform="translate(875,723)" d="m0 0 1 3h2l4 12 6 10 6 8v5l-5 1-1-5-3-6v-2l-3-1-7-11-2-8z" fill="#363936"/>
<path transform="translate(702,508)" d="m0 0 5 1 2 14v7l1 3v64h-1l-1-8-3-78-12-1v-1z" fill="#2A2729"/>
<path transform="translate(730,238)" d="m0 0 5 1 5 6 1 2v8l-5 5h-5z" fill="#2D2C2C"/>
<path transform="translate(1627,238)" d="m0 0 5 1 5 5 1 3v7l-4 5-6 1z" fill="#353331"/>
<path transform="translate(1610,547)" d="m0 0 4 1-1 3-20 3-20 1v-4l23-3z" fill="#2D292B"/>
<path transform="translate(426,455)" d="m0 0h28l-1 4-19 1h-22v-4z" fill="#383838"/>
<path transform="translate(735,511)" d="m0 0h20l22 1v4h-27l-15-1z" fill="#1B1719"/>
<path transform="translate(1346,235)" d="m0 0 4 1v25h9l3 2v2h-10l-1 1h-5l-1-7z" fill="#F4FAF4"/>
<path transform="translate(631,556)" d="m0 0h27l-1 4-21 1h-20v-4z" fill="#1B1719"/>
<path transform="translate(265,526)" d="m0 0 11 1 30 5 1 4-11-1-27-4-4-1z" fill="#302E2F"/>
<path transform="translate(1325,345)" d="m0 0 11 1v2l23 2 2 2-1 26-3 24h-1v-18l2-25 1-7-17-1-8-2-10-1-2-2z" fill="#2B292B"/>
<path transform="translate(1893,833)" d="m0 0h1l1 13 1 26-1 23v23l-1 6h-1z" fill="#9C634C"/>
<path transform="translate(906,462)" d="m0 0h105v1l-34 2-24-1h-16l-23-1v2h-5v-2z" fill="#2D2E30"/>
<path transform="translate(335,374)" d="m0 0 6 1v2l-46 11h-7l1-2 15-4 9-3z" fill="#9C5C56"/>
<path transform="translate(642,406)" d="m0 0h42l-1 4h-41z" fill="#1C181A"/>
<path transform="translate(350,971)" d="m0 0h1l-1 11-5 42h-4l1-12 2-19 1-4h2v-11z" fill="#4A3F3B"/>
<path transform="translate(355,616)" d="m0 0 1 3-8 7-7 7-6 12-1 5-1 17-2-2-1-9v-11l4-9 4-5h2l2-4 4-3h2v-3l3-3z" fill="#FDDCAE"/>
<path transform="translate(719,559)" d="m0 0h12l42 2 10 1v1l-22 1h-25l-5-1-12-2z" fill="#232224"/>
<path transform="translate(1636,672)" d="m0 0 3 1-4 3-1 5 3 8 9 7-4 1-12-7-5-4v-6l5-5z" fill="#1F1F22"/>
<path transform="translate(307,393)" d="m0 0h5v4l-15 3-21 5h-4l-1-4z" fill="#2C2A2B"/>
<path transform="translate(1457,543)" d="m0 0 2 1-4 4-7 2-8 1-7-1-19-1v-1l31-4z" fill="#2B2425"/>
<path transform="translate(1345,493)" d="m0 0h1l2 22h1l2 10 1 11v15l-2 1-3-11-2-30z" fill="#29282A"/>
<path transform="translate(1060,427)" d="m0 0 15 1 32 4v1h-8v2l-14-1-26-3z" fill="#23B3D8"/>
<path transform="translate(457,243)" d="m0 0h4l1 6 2 1-7 2v3h7l1 5-3 3h-6l-3-3v-10z" fill="#343635"/>
<path transform="translate(413,599)" d="m0 0h21l-1 4-41 1v-4z" fill="#302F30"/>
<path transform="translate(341,368)" d="m0 0 2 1-1 4-24 6h-12l3-3 15-4z" fill="#29292B"/>
<path transform="translate(996,933)" d="m0 0 2 3 5 28 5 20-1 4-3-9-3-12-2 1-6-30 2-2 1 3z" fill="#9C634C"/>
<path transform="translate(1265,372)" d="m0 0h1v5h15l23 2v1l-19 2-19-1v3l17 1v1h-14l-4-1z" fill="#D09D3F"/>
<path transform="translate(695,242)" d="m0 0h4l1 2v10l-5 5-5-1-2-3 1-7 5-4z" fill="#374A46"/>
<path transform="translate(1659,242)" d="m0 0 4 1 1 1-1 10-3 4h-6l-3-4 1-5 5-5z" fill="#38413E"/>
<path transform="translate(1020,241)" d="m0 0h3l1 2v10l-4 5h-5l-3-4v-5l4-5z" fill="#252D2E"/>
<path transform="translate(433,243)" d="m0 0 5 1v10l-4 5h-5l-3-3v-6l5-5z" fill="#373F3C"/>
<path transform="translate(266,518)" d="m0 0 12 1 26 4v2l2 1h-10l-14-1-15-3z" fill="#2C2C2D"/>
<path transform="translate(856,305)" d="m0 0h82v1l-13 1h-62l-4 2-1 2-1 11h-1z" fill="#2A2729"/>
<path transform="translate(962,237)" d="m0 0 10 1 4 4-2 4-1 1h-9v4h-2v6h-1v-19z" fill="#313734"/>
<path transform="translate(303,390)" d="m0 0h7v3l-36 8h-3l1-4z" fill="#9C5C57"/>
<path transform="translate(1752,595)" d="m0 0h6l3 3-8 4-3 3h-2l-1 4h-3l-5-5-3-2v-2l10-1 2-2z" fill="#313232"/>
<path transform="translate(977,533)" d="m0 0h46l1 4-6 1h-8l-6-2h-12l-13-1z" fill="#1E1F22"/>
<path transform="translate(809,305)" d="m0 0h42v10l-4-5-2-1v-2h-4v2l4 1v2h2l3 5-1 4h-2l-2-8-9-2-4-2 5-2h-25z" fill="#262426"/>
<path transform="translate(762,242)" d="m0 0 4 1 1 1-1 9-3 5h-6l-2-3v-6z" fill="#3A413B"/>
<path transform="translate(356,593)" d="m0 0 5 1-4 4-16 8-11 8-2 1v-4l5-5 2-3 14-7 7-1z" fill="#343533"/>
<path transform="translate(1112,593)" d="m0 0 3 1 3 2-39 8h-3l-1-4 22-4z" fill="#23B3D8"/>
<path transform="translate(458,649)" d="m0 0h2l2 5v7l-6 9-3-1-1-7 2-9z" fill="#1E1E21"/>
<path transform="translate(1713,486)" d="m0 0 19 2 18 3 3 3-1 1-14-1-26-5z" fill="#1C1819"/>
<path transform="translate(412,664)" d="m0 0h4l-1 5-9 16-3 2h-2l-4 1 6-10 1-3h2v-3h2l1-6z" fill="#393533"/>
<path transform="translate(359,928)" d="m0 0h44l-4 2-16 1-10 1-2 1h-12z" fill="#9C624B"/>
<path transform="translate(1392,489)" d="m0 0h8l-4 2-7 2v1l-20 2h-7l-1-4 4-1z" fill="#DDAF3B"/>
<path transform="translate(302,755)" d="m0 0h2l-1 7-6 18-8-1-2-3h3v-2h3l3-10 3-1-1-3z" fill="#323837"/>
<path transform="translate(312,628)" d="m0 0 2 4-5 10-2 11-7 14h-2l1-9 3-7 4-15 3-3h2l-1-3z" fill="#373432"/>
<path transform="translate(941,596)" d="m0 0h21l-2 12-3-4v-6h-2l1 4-1 13-1 2h-2l-1 3 1-12 1-6h-2l-2-2h-7v-1l-9-1v-1z" fill="#2D2E30"/>
<path transform="translate(921,397)" d="m0 0h44v3h-44z" fill="#1A1A1C"/>
<path transform="translate(1890,894)" d="m0 0h1v32l-13 1-2-4-1-9 6 5 5 1 3-3z" fill="#2C2D2F"/>
<path transform="translate(920,409)" d="m0 0h48v1l-11 1 4 2h-41z" fill="#23B3D8"/>
<path transform="translate(1015,707)" d="m0 0 2 1-11 12-9 12-3-1h-3l4-8 3-1v-2l10-8 4-2z" fill="#1D1E21"/>
<path transform="translate(458,591)" d="m0 0h10v3h-75v-2z" fill="#2C282A"/>
<path transform="translate(395,812)" d="m0 0h1l-1 7-8 20-3 5h-3l2-9 8-18z" fill="#181315"/>
<path transform="translate(1789,485)" d="m0 0h1v9h-8l-15-2-13-1-1 5h-8v-1l7-1-2-2-8-1 1-4 13 1 23 3 10 2v-3l-3-1h3z" fill="#9E4C72"/>
<path transform="translate(296,666)" d="m0 0 3 3v26h-3l-2-7-2-10 2-9z" fill="#373233"/>
<path transform="translate(1e3 240)" d="m0 0h9l-2 4-3 4-1 6-3 1 1 5 1 2-4-2-6-8 7-6h2z" fill="#2E2D2D"/>
<path transform="translate(1749,485)" d="m0 0h9l28 4 3 1v3l-10-1-30-4z" fill="#1F1A1C"/>
<path transform="translate(1061,414)" d="m0 0 26 3 8 1-3 2-16 1-15-2-1-4z" fill="#202022"/>
<path transform="translate(1754,478)" d="m0 0h8l27 4v4l-19-2-12-2v-2h-5z" fill="#2A282A"/>
<path transform="translate(957,235)" d="m0 0h5l-1 4-1 25-3 1-2-1 1-28z" fill="#F8FBF7"/>
<path transform="translate(1336,240)" d="m0 0 5 2 1 4 2 3v11l3 1-1 3-5-1-3-8-2-6z" fill="#333938"/>
<path transform="translate(1703,600)" d="m0 0h20l-2 6-2 3-10-3-9-2 4-1z" fill="#231F20"/>
<path transform="translate(599,539)" d="m0 0h1l1 17h1l1 43-2-2-2-33-2-16v-7z" fill="#2E2D2F"/>
<path transform="translate(654,402)" d="m0 0h50v1h-20v2h-32l-4-2z" fill="#D38845"/>
<path transform="translate(310,246)" d="m0 0h4l1 2 4 2v6l-3 6-6 1 2-10-4-2 1-4z" fill="#343837"/>
<path transform="translate(1846,819)" d="m0 0h2l4 11 4 13 3 12-2 3-11-33-1-5z" fill="#32322F"/>
<path transform="translate(920,406)" d="m0 0h10v1l65 1 1-2v3l-5 1h-23l-48-1z" fill="#1A1719"/>
<path transform="translate(347,961)" d="m0 0h2l1 2v8l-2 7-1 11h-1v-17l2-6-2-1-2 13-2 8-1 5h-1v-10l3-17 1-2z" fill="#9C614D"/>
<path transform="translate(1733,729)" d="m0 0 4 2 6 6 4 8 1 3h3v2l-5 3-3-1-9-21z" fill="#FEDDB0"/>
<path transform="translate(357,927)" d="m0 0 2 1-2 13-3 15-2 14-2 1-1-9 6-29z" fill="#383838"/>
<path transform="translate(873,691)" d="m0 0h1l1 19 2 16-4-1-1-8-3-12v-9h3z" fill="#423B39"/>
<path transform="translate(722,467)" d="m0 0h1v21l-1 18h-1l-1-5-1 9-2 8h-1v-9l2-13 2-8 1-20z" fill="#2E2B2D"/>
<path transform="translate(718,393)" d="m0 0h1v5h-77v-1l70-1-17-1v-1z" fill="#9C5E47"/>
<path transform="translate(546,240)" d="m0 0h1l1 60-9-1 3-1-1-3 3-4 1-10v-24z" fill="#2C2C2E"/>
<path transform="translate(945,197)" d="m0 0h50v2l-19 1h-29l-2-1z" fill="#2C2729"/>
<path transform="translate(1247,437)" d="m0 0h21v1l-9 1-1 1 29 1 3 1v2h7v1h-8l-6-2h-13l-1 2-8-1v-1l-8-2v-2h-5z" fill="#2D2E30"/>
<path transform="translate(1274,387)" d="m0 0h28l13 1v1h-9l1 3-18-1-5-1-19-1v-1z" fill="#DDAC3A"/>
<path transform="translate(632,457)" d="m0 0h21l48 1 15 1v1h-72l-12-2z" fill="#2D2E30"/>
<path transform="translate(1889,743)" d="m0 0h1v57l-1 5-2-3 1-5v-8l-1-14 1-2v-11l-1-11z" fill="#2D2E30"/>
<path transform="translate(1579,390)" d="m0 0h39v3h-39z" fill="#2E2B2C"/>
<path transform="translate(1038,570)" d="m0 0 2 3 3 8v6l-2 6h-2v3h-2v-25z" fill="#2C2D2F"/>
<path transform="translate(311,625)" d="m0 0 1 3-1 5-4 3-5 19-2 4-1 10-2 1-1-9 7-19 2-8z" fill="#2C2D2F"/>
<path transform="translate(1715,469)" d="m0 0 4 2h-4v3l10 1 16 3v1l-7 1-1 1-12-1-7-2v-8z" fill="#9C4D6A"/>
<path transform="translate(443,240)" d="m0 0 7 2-1 6-2 5-1 7-5-1 1-5v-13z" fill="#2E2D2E"/>
<path transform="translate(1683,603)" d="m0 0 2 1 12 1-1 5-3 9-3-2-3-6-4-5z" fill="#221E1E"/>
<path transform="translate(920,405)" d="m0 0h38l1 3h-34v-1l-5-1z" fill="#222326"/>
<path transform="translate(1874,98)" d="m0 0h17v42h-1l-1-34-7-5h-10l2-1z" fill="#2C2D2F"/>
<path transform="translate(1405,549)" d="m0 0h8v1l-21 6-3 1h-9l-9-1 1-2 21-2z" fill="#2B2729"/>
<path transform="translate(1044,250)" d="m0 0h13l-1 6-4 7-4 2v-3l2-4v-3l-7-1z" fill="#E8F6F3"/>
<path transform="translate(814,197)" d="m0 0h37v5l-2 1-5-2-1-1h-28l-3-2z" fill="#2B292B"/>
<path transform="translate(255,398)" d="m0 0 2 1 10 43v6l-3-4-4-18-5-23z" fill="#302D2F"/>
<path transform="translate(1398,549)" d="m0 0h7l-2 2-18 3-13 1-3 1-7-1v-2l14-2 16-1z" fill="#372B26"/>
<path transform="translate(1023,540)" d="m0 0h1v5h-49v-1l28-1 1-1 15-1z" fill="#232427"/>
<path transform="translate(1455,498)" d="m0 0 2 3 2 23 1 7-3 4-3-23v-10z" fill="#2D2C2D"/>
<path transform="translate(1259,438)" d="m0 0h21l18 2v1h-40l-3-2z" fill="#251F21"/>
<path transform="translate(1821,976)" d="m0 0 2 3 3 16 2 5 1 13v11l-2-3-6-39z" fill="#FEDAAD"/>
<path transform="translate(1675,587)" d="m0 0 9 9v3l4 2 2 2-2 2-4-1-2 1-5-7v-3h-2l-1-4z" fill="#2E2F2F"/>
<path transform="translate(308,718)" d="m0 0 2 3 5 22-1 4v-2h-3l-1-2-1-9-3-8z" fill="#393633"/>
<path transform="translate(729,463)" d="m0 0h20l4 1 6 1v1l-12 1h-20v-2h2z" fill="#2F2F31"/>
<path transform="translate(1595,537)" d="m0 0h14v3l-24 2h-6l1-3 2-1z" fill="#9C595D"/>
<path transform="translate(1816,738)" d="m0 0 2 1 2 5 2 1 4 9-2 4-2-2-2-6-2 4-4-10v-5z" fill="#343634"/>
<path transform="translate(872,676)" d="m0 0h1l1 15-1 17h-1v-12l-4-1 1-11 2-7z" fill="#29292B"/>
<path transform="translate(1415,451)" d="m0 0h9l8 1v1l-21 3h-14l2-2z" fill="#2A292B"/>
<path transform="translate(1774,609)" d="m0 0 4 1 9 15-4 3v-3h-2l-7-11-1-4z" fill="#2C2C2B"/>
<path transform="translate(426,455)" d="m0 0h28v3h-31l3-1z" fill="#2E2C2E"/>
<path transform="translate(976,296)" d="m0 0 9 1h13l4-1 2 1h7l4-1 10 2v1h-10l-1 1-40-1z" fill="#2D2E30"/>
<path transform="translate(300,708)" d="m0 0 5 4 1 6h2l-1 8 3 8 1 11-2 8h-2l1-4v-10l-3-12-2-10z" fill="#2D2E30"/>
<path transform="translate(1610,547)" d="m0 0 4 1-1 3-25 1-2-1v-2z" fill="#1E1D1F"/>
<path transform="translate(304,524)" d="m0 0h7l14 4v1h-17l-19-3v-1h15z" fill="#2D2C2D"/>
<path transform="translate(877,652)" d="m0 0h2l-2 8-2 25-2-1v-13l-1-7 2-5 2-6z" fill="#353434"/>
<path transform="translate(314,523)" d="m0 0h13l12 2 1 3h-9l-15-2-2-1z" fill="#9C5E54"/>
<path transform="translate(1615,383)" d="m0 0h39l-1 2-43 1v-1h5z" fill="#2B2729"/>
<path transform="translate(1358,359)" d="m0 0h1l1 5v14l-3 24h-1v-18z" fill="#352F2E"/>
<path transform="translate(1166,305)" d="m0 0h43v10l-5-5-2-3h-34z" fill="#282528"/>
<path transform="translate(413,444)" d="m0 0h31v1l-7 1v1h-25z" fill="#9C614D"/>
<path transform="translate(641,401)" d="m0 0 13 1-2 2 32 1v1h-42l-1 4z" fill="#8B6E60"/>
<path transform="translate(157,885)" d="m0 0h1l1 20-1 2h2l-1 9 2 7 3 3h-7z" fill="#2D2E30"/>
<path transform="translate(311,745)" d="m0 0h3l2 5v8l-5-1-3-1v-2l-3-1h4l1-7z" fill="#353030"/>
<path transform="translate(660,508)" d="m0 0h18l2 1v2h-32v-2z" fill="#292527"/>
<path transform="translate(474,446)" d="m0 0h15v3h-32l1-2z" fill="#2C2829"/>
<path transform="translate(1059,431)" d="m0 0 18 1v5l-12-1-6-1z" fill="#1C191C"/>
<path transform="translate(876,893)" d="m0 0h1l3 34-6-1v-7h2l-1-3 1-4z" fill="#3C3230"/>
<path transform="translate(887,761)" d="m0 0 4 2h-3v27l-1-4-5-1 3-8 1-15z" fill="#443B36"/>
<path transform="translate(1449,452)" d="m0 0h1l2 9 2 24v8l-2-2-2-14-1-14z" fill="#332E2E"/>
<path transform="translate(455,255)" d="m0 0h9l1 5-3 3h-6l-2-2v-5z" fill="#232624"/>
<path transform="translate(1793,748)" d="m0 0 5 1v2h-2l-2 5-6 7-2 1h-10l-1-2 9-1 6-5z" fill="#586055"/>
<path transform="translate(269,511)" d="m0 0h10l19 3v1h-8l-1 1-13-1-7-1z" fill="#2E2A2C"/>
<path transform="translate(1861,856)" d="m0 0 2 1 4 14v3h-2v-2l-4-1-3-10 1-4z" fill="#2A282A"/>
<path transform="translate(306,376)" d="m0 0 3 1-2 1 6 1-3 2-14 3h-5l2-1 1-4z" fill="#2C2C2D"/>
<path transform="translate(1041,254)" d="m0 0h9l1 4-4 4h-5l-2-2v-5z" fill="#282928"/>
<path transform="translate(1029,238)" d="m0 0 5 1 1 7-4 10h-3z" fill="#292829"/>
<path transform="translate(478,437)" d="m0 0h10l1 3-5 1h-9v-1l-28-1v-1z" fill="#323031"/>
<path transform="translate(1693,236)" d="m0 0 6 1v12h-5l-1-1z" fill="#222022"/>
<path transform="translate(1734,479)" d="m0 0h11l13 4v1h-12l-13-3z" fill="#9C5856"/>
<path transform="translate(1039,476)" d="m0 0 36 5v2h3v2h-7l-3-2-29-5z" fill="#2B2A2C"/>
<path transform="translate(299,252)" d="m0 0h6l2 3-1 5-3 3-4-1z" fill="#31332F"/>
<path transform="translate(1633,568)" d="m0 0 4 1-3 5v7l5 9-2 1-4-1-2-5v-13z" fill="#9B5171"/>
<path transform="translate(1043,242)" d="m0 0h2l4 7-5 2-1 3-2 1-2 4v-11z" fill="#313030"/>
<path transform="translate(1325,444)" d="m0 0h11l17 1-3 3h-11l-10-1z" fill="#2B2729"/>
<path transform="translate(282,390)" d="m0 0h5l-1 2 4 2-15 3h-5v-4z" fill="#312F30"/>
<path transform="translate(1080,239)" d="m0 0h5v9l-5 2-2-1-1 3h-2l2-5 2-4z" fill="#282526"/>
<path transform="translate(996,933)" d="m0 0 2 3 3 18v5l-2-3-4-8-2-10 2-2 1 3z" fill="#9C467F"/>
<path transform="translate(453,582)" d="m0 0h15l1 2-2 1h-38v-1h24z" fill="#2F2D2F"/>
<path transform="translate(977,569)" d="m0 0 9 1 2 3-14 1v2l-5 2-1 3-1-2 4-6 3-3z" fill="#FFFADE"/>
<path transform="translate(1355,408)" d="m0 0h1l1 13-1 16-2 3v-6h-1l1-22z" fill="#28282A"/>
<path transform="translate(762,242)" d="m0 0 4 1v6l-5 4-5-2 1-4z" fill="#242829"/>
<path transform="translate(829,472)" d="m0 0h1l1 24-2 13h-1v-34z" fill="#262528"/>
<path transform="translate(695,242)" d="m0 0h4l1 6-5 4-6-1 1-4z" fill="#303535"/>
<path transform="translate(903,638)" d="m0 0h4l-2 6-3 7-5-1-1-3h2l2-5z" fill="#2D2829"/>
<path transform="translate(783,562)" d="m0 0h9l2 3h-13l1 2h-10l-2-2-6-1v-1z" fill="#2D2D2F"/>
<path transform="translate(1813,938)" d="m0 0 2 2 4 13 2 20-2-1-6-29z" fill="#FED9AC"/>
<path transform="translate(1e3 669)" d="m0 0m-1 1m-10-1 2 4 5-1 3-1 5 2-5 4-3 1v2h-2v-2h-4z" fill="#2F2E2F"/>
<path transform="translate(1736,600)" d="m0 0h8l3 1v2h2l-2 6h-3l-5-5-3-2z" fill="#221C1D"/>
<path transform="translate(402,261)" d="m0 0 3 1h7l5 2 1 3h-17z" fill="#ECF6ED"/>
<path transform="translate(371,847)" d="m0 0 1 4-1 7h-2v6l-6 4 3-10 4-10z" fill="#1A1618"/>
<path transform="translate(1834,780)" d="m0 0 2 4 5 14-1 5-1-2h-2l-3-8z" fill="#2B2729"/>
<path transform="translate(295,782)" d="m0 0 8 1v2l7 1 3 1v2h-2l-1 2-6-2v-2h-7z" fill="#27B4D7"/>
<path transform="translate(1350,525)" d="m0 0h1l1 11v15l-2 1-2-7v-9l1-1z" fill="#362D2D"/>
<path transform="translate(1485,305)" d="m0 0h20l-1 4-7-2v2l3 1v3l-5-2-3-1 1-4h-8z" fill="#2D2E30"/>
<path transform="translate(525,305)" d="m0 0h23l-1 15h-1l-1-8-4-3v-2h-10l-6-1z" fill="#2A2629"/>
<path transform="translate(1114,251)" d="m0 0 7 2v4l-3 3h-5l-2-4 1-2h2z" fill="#3B4542"/>
<path transform="translate(1092,238)" d="m0 0h10v1l-6 1 1 4 4 1-7 2-4-1v-7z" fill="#36403C"/>
<path transform="translate(1123,422)" d="m0 0 13 1 1 4-1 1-12-1-7-1v-1l8-1z" fill="#232325"/>
<path transform="translate(157,97)" d="m0 0 4 2-1 3-1 24-2 1z" fill="#2E2F31"/>
<path transform="translate(1035,671)" d="m0 0 4 1 2 1v6l-2 2h-3l-3 4-3-1 6-11z" fill="#1F1F22"/>
<path transform="translate(838,306)" d="m0 0 3 1v2l4 1v2h2l3 5-1 4h-2l-2-8-9-2-4-2z" fill="#2D2E30"/>
<path transform="translate(730,238)" d="m0 0 5 1 3 4h-3v2h-2l-1 13 5-1-1 3h-5z" fill="#2B3735"/>
<path transform="translate(902,901)" d="m0 0 2 3 5 30v6l-2-4-3-11-1-12-1-3z" fill="#D38845"/>
<path transform="translate(1840,803)" d="m0 0h3l5 11v2h-2l-2 4-3-8v-5z" fill="#2D2C2C"/>
<path transform="translate(305,755)" d="m0 0 5 1-2 4-4 9-3 3-1-4z" fill="#FCFDF6"/>
<path transform="translate(1772,730)" d="m0 0h6l-5 4h-2v2l-5 5-2 5-1-2h-2l2-6z" fill="#7C6453"/>
<path transform="translate(1309,346)" d="m0 0 25 2 8 2v1l-19-1-12-1-2-1z" fill="#4D3A39"/>
<path transform="translate(1271,251)" d="m0 0h8l-1 2h-4v6l-1 1h-6l1-7z" fill="#354341"/>
<path transform="translate(856,164)" d="m0 0h1v22l5 1 1 5h-7z" fill="#2C292B"/>
<path transform="translate(393,584)" d="m0 0h34v1l-32 2-2 1z" fill="#2C2729"/>
<path transform="translate(287,778)" d="m0 0 6 1-2 4-5 5-3-1v-3l-2-1z" fill="#24B3D7"/>
<path transform="translate(887,749)" d="m0 0h2l5 7v5l-5 1-1-5-2-3z" fill="#2A2726"/>
<path transform="translate(1773,488)" d="m0 0 13 1 3 1v3l-10-1-15-2v-1z" fill="#272224"/>
<path transform="translate(1742,475)" d="m0 0 13 2-1 2 4 2h-8l-16-3v-1l8-1z" fill="#302D2F"/>
<path transform="translate(1308,444)" d="m0 0h17l4 2 10 1v1h-14l-14-2h-3z" fill="#2D2E30"/>
<path transform="translate(1265,372)" d="m0 0h1v5h15v1l-10 1 3 2h-8v3l17 1v1h-14l-4-1z" fill="#87774B"/>
<path transform="translate(1283,343)" d="m0 0h5v2h5l1 1 8 1v1h-10l-24-2v-1l13-1z" fill="#544441"/>
<path transform="translate(874,892)" d="m0 0h2l1 20-1 7-2-1z" fill="#2B292B"/>
<path transform="translate(1797,695)" d="m0 0h1l2 11 2 5h3l2 6-4 1-7-14z" fill="#403C38"/>
<path transform="translate(332,606)" d="m0 0m-1 1m-2 1 2 1v2h-3l-1 5-5 1-8 7-1-2 6-7 4-3h2l1-3z" fill="#2C2C2E"/>
<path transform="translate(1430,485)" d="m0 0h7l-2 2 1 2-14 1-3-2v-2z" fill="#D7A53A"/>
<path transform="translate(1252,344)" d="m0 0h1v22l-1 7h-2v-14z" fill="#2D292B"/>
<path transform="translate(1065,254)" d="m0 0 4 1 4 6v3h-5l-4-5z" fill="#2B3636"/>
<path transform="translate(1511,197)" d="m0 0h11v2h-6v2h-3l-1 23h-1z" fill="#29282A"/>
<path transform="translate(615,550)" d="m0 0 1 3h8l-3 2 10 1v1h-15v4h12v1h-13z" fill="#BE7946"/>
<path transform="translate(414,447)" d="m0 0h22v1l-5 1v1h-18z" fill="#302D2F"/>
<path transform="translate(1060,422)" d="m0 0 16 2-4 4-12-1z" fill="#1D1B1D"/>
<path transform="translate(1819,749)" d="m0 0 2 1 2 8 3 1 1 7-5-2-3-8z" fill="#302C2E"/>
<path transform="translate(856,260)" d="m0 0h1v35l3 1v2l2 1-6 1z" fill="#2C2A2C"/>
<path transform="translate(909,632)" d="m0 0 5 1v2l-7 4-4-1-2 4-4 1 2-1 2-5z" fill="#2D3131"/>
<path transform="translate(286,522)" d="m0 0h11l7 1v2l2 1h-10l-10-2z" fill="#242426"/>
<path transform="translate(299,691)" d="m0 0 2 4 3 10-5 2-2-6v-5z" fill="#3A3C38"/>
<path transform="translate(1646,528)" d="m0 0h1v9l-1-2-8 2h-7l4-4 10-1z" fill="#9C467F"/>
<path transform="translate(1092,389)" d="m0 0 20 1 8 3v1l-13-1-16-2z" fill="#2D2E30"/>
<path transform="translate(745,241)" d="m0 0 5 1 2 4-2 3-1 7h-2z" fill="#312D2C"/>
<path transform="translate(1685,239)" d="m0 0 1 3-5 8-3-1v-8z" fill="#2F2F2E"/>
<path transform="translate(241,907)" d="m0 0 1 3-4 18-2-1-9-1v-1h7v-3l4-1 2-13z" fill="#2D2D2F"/>
<path transform="translate(379,822)" d="m0 0h2l-3 10-4 12v3l-4 1 3-10z" fill="#1C1A1C"/>
<path transform="translate(422,649)" d="m0 0h4l1 5-6 6-3-1z" fill="#32292F"/>
<path transform="translate(1790,639)" d="m0 0 5 2 2 7v6l-1-2h-2l-4-11z" fill="#313331"/>
<path transform="translate(720,488)" d="m0 0h1v9l-2 13-2 8h-1v-9l2-13z" fill="#2D2E30"/>
<path transform="translate(278,383)" d="m0 0h8l-1 2-12 3-5 1 1-4z" fill="#252426"/>
<path transform="translate(909,934)" d="m0 0h1l3 17v5h-2l-3-12z" fill="#DC993E"/>
<path transform="translate(1654,668)" d="m0 0 13 3v1l-14 1-5 1 1-3-2-1z" fill="#313231"/>
<path transform="translate(1664,548)" d="m0 0 2 4 1 1v22h-1l-2-16z" fill="#2E2A2C"/>
<path transform="translate(1715,469)" d="m0 0 4 2h-4v3h6v2l3 1 2 2h-7l-5-1v-8z" fill="#9C5458"/>
<path transform="translate(1023,243)" d="m0 0h1v10l-4 5h-5l-2-4h5l4-5z" fill="#3B4C48"/>
<path transform="translate(1018,537)" d="m0 0h6l-1 4h-16l4-1v-2z" fill="#23B3D8"/>
<path transform="translate(273,515)" d="m0 0 10 1v4l-11-1-4-1v-2z" fill="#9C4C73"/>
<path transform="translate(783,466)" d="m0 0h10l6 2v1h-24v-1l7-1z" fill="#2E2D2F"/>
<path transform="translate(1247,437)" d="m0 0h21v1l-9 1-1 1 7 1v1h-9l-3-1v-2h-5z" fill="#352C2B"/>
<path transform="translate(990,254)" d="m0 0 4 2 4 6-1 2-5-1-2-2z" fill="#2A2A2B"/>
<path transform="translate(299,239)" d="m0 0 6 1 1 5-3 2h-4z" fill="#333936"/>
<path transform="translate(990,928)" d="m0 0h6l1 5 1 11-2 1-1-9h-2l-2-5z" fill="#9C545E"/>
<path transform="translate(1853,839)" d="m0 0h2l4 16-2 3-4-12z" fill="#333631"/>
<path transform="translate(1668,243)" d="m0 0 3 1 1 10-4 4-1-3z" fill="#282729"/>
<path transform="translate(1020,241)" d="m0 0h3v8l-3 3-1-5-4-2z" fill="#303332"/>
<path transform="translate(279,399)" d="m0 0h5l-3 2 3 2-8 2h-4l-1-4z" fill="#312E2F"/>
<path transform="translate(315,374)" d="m0 0h5l-2 5h-12l3-3z" fill="#262527"/>
<path transform="translate(856,305)" d="m0 0h15v1l-10 2-3 3-1 11h-1z" fill="#282628"/>
<path transform="translate(836,200)" d="m0 0 9 2 4 3v2l-5-1-5-2-7-1 1-2z" fill="#2D2E30"/>
<path transform="translate(1499,198)" d="m0 0 7 1v5h-3l-5-2-6-2v-1z" fill="#2C2D2F"/>
<path transform="translate(1801,927)" d="m0 0 5 2v7h-2l-1 2-4-10z" fill="#9C467F"/>
<path transform="translate(1875,914)" d="m0 0 5 5 4 7-6 1-2-4z" fill="#262325"/>
<path transform="translate(1113,422)" d="m0 0h10l3 2-1 1h-16l-2-2z" fill="#191517"/>
<path transform="translate(920,240)" d="m0 0 6 3-1 5-3 4h-2z" fill="#303535"/>
<path transform="translate(408,670)" d="m0 0 1 3-4 8-3 5-2 2-3-1 3-3 4-9h2v-3h2z" fill="#2C2D2F"/>
<path transform="translate(1671,665)" d="m0 0 1 3-3 5 3 1-9-1v-2l-4-2 7-1 4-1z" fill="#363B37"/>
<path transform="translate(1098,649)" d="m0 0m-5 1h5v2l-21 4h-5l1-2 11-2z" fill="#2C2D2F"/>
<path transform="translate(921,633)" d="m0 0h9l-1 4-1 2-5-1-3-2z" fill="#2D2826"/>
<path transform="translate(1127,431)" d="m0 0 9 1-1 4-13-1 2-3z" fill="#201F22"/>
<path transform="translate(1017,665)" d="m0 0 7 1 4 1h2v3l-7 1-10-1v-1h9v-2h-5z" fill="#41443F"/>
<path transform="translate(1631,588)" d="m0 0h2v2h6v3l-9 2-4-1h3z" fill="#9C5E52"/>
<path transform="translate(1436,451)" d="m0 0h13l-1 3h-22v-1z" fill="#434840"/>
<path transform="translate(1300,247)" d="m0 0 3 1 1 2v6l-1 2-3-1-1-9z" fill="#2E3132"/>
<path transform="translate(1074,249)" d="m0 0 2 1-1 2 3-3 3 1-1 2h-2l-2 6-6-4 1-3z" fill="#2F3434"/>
<path transform="translate(334,249)" d="m0 0 5 1 1 7-2 4-2-1z" fill="#1F2023"/>
<path transform="translate(332,241)" d="m0 0h2v3l4 2 1 4h-4v6l-2-3z" fill="#313737"/>
<path transform="translate(339,994)" d="m0 0h1v13l-3 15h-1l1-16z" fill="#9C634C"/>
<path transform="translate(875,723)" d="m0 0 2 3 1 11v3l-3-3-2-8z" fill="#2C2B2D"/>
<path transform="translate(1368,555)" d="m0 0h7l4 2-7 2h-17v-1l11-1z" fill="#2D2E30"/>
<path transform="translate(326,529)" d="m0 0h10l6 1v3l-13-1z" fill="#262527"/>
<path transform="translate(1731,485)" d="m0 0 11 1 1 2-1 2-10-1z" fill="#9D487C"/>
<path transform="translate(262,425)" d="m0 0h1l4 17v6l-3-4-3-14z" fill="#302F30"/>
<path transform="translate(313,254)" d="m0 0 4 1v6l-4 2h-3l1-5z" fill="#22282A"/>
<path transform="translate(873,859)" d="m0 0h1l2 26-2-4v-5h-2z" fill="#4D3C36"/>
<path transform="translate(302,704)" d="m0 0 3 2 3 9v3h-2l-1-6-3-1-2-5z" fill="#383233"/>
<path transform="translate(990,573)" d="m0 0 3 2v15l-3 7-2 1 3-13v-8z" fill="#474E43"/>
<path transform="translate(1343,462)" d="m0 0h1l2 16v12h-1l-2-10z" fill="#2B292B"/>
<path transform="translate(1298,344)" d="m0 0 10 2 1-2h5l5 2v1h-7l-3-1v2h-7l-4-1z" fill="#2E2D2F"/>
<path transform="translate(1378,252)" d="m0 0 5 1-2 5-2 2h-6l2-2 1-4z" fill="#36423F"/>
<path transform="translate(1330,245)" d="m0 0 2 1v9l-4 2-1-5z" fill="#42564D"/>
<path transform="translate(980,246)" d="m0 0h4v6l-1 1h-7l-1-2z" fill="#262325"/>
<path transform="translate(261,865)" d="m0 0 2 3 1 3-5 5-2-3v-5h3z" fill="#23B3D8"/>
<path transform="translate(1573,536)" d="m0 0 22 1v1l-22 1z" fill="#323031"/>
<path transform="translate(1713,486)" d="m0 0 11 1 4 4-12-1-4-1z" fill="#2D292A"/>
<path transform="translate(1658,243)" d="m0 0 5 2-1 4-1-2-1 2h-6l-1 2 1-5z" fill="#2D302E"/>
<path transform="translate(1068,241)" d="m0 0h6l-1 4-4 3h-3l1-6z" fill="#3D433E"/>
<path transform="translate(1140,241)" d="m0 0h5l1 7-6-1-2-4z" fill="#323736"/>
<path transform="translate(276,844)" d="m0 0h4l-1 7-5 3-1-3 2-2z" fill="#54C4D1"/>
<path transform="translate(1457,543)" d="m0 0 2 1-4 4-7 2v-2l2-2-5-1v-1z" fill="#322C2C"/>
<path transform="translate(289,514)" d="m0 0 15 1 2 3h-9l-8-2z" fill="#222225"/>
<path transform="translate(364,495)" d="m0 0h1v10l-2 9h-2v-8l1-5h2z" fill="#2F2E2F"/>
<path transform="translate(1357,378)" d="m0 0h2l-1 14-1 10h-1v-18z" fill="#232326"/>
<path transform="translate(1080,251)" d="m0 0 7 1v1h-6v6l-5 1v-5z" fill="#424842"/>
<path transform="translate(993,240)" d="m0 0 5 1-1 4-3 3h-3l1-6z" fill="#343733"/>
<path transform="translate(1799,692)" d="m0 0h1l1 11 3 5v3h-2l-4-8v-8z" fill="#2C2C2E"/>
<path transform="translate(931,624)" d="m0 0h3l-1 3-5 2-12-1v-2l4-1 2 1h6z" fill="#2D2E30"/>
<path transform="translate(718,393)" d="m0 0h1v5l-7-1v-1l-17-1v-1z" fill="#9E634C"/>
<path transform="translate(1336,240)" d="m0 0 5 2 1 4 2 5-8-4z" fill="#2B2B2D"/>
<path transform="translate(858,199)" d="m0 0h6l-4 5-2 1-1 11h-1v-15z" fill="#2C2B2D"/>
<path transform="translate(349,966)" d="m0 0h1l-1 8-2 15h-1v-17z" fill="#9C634C"/>
<path transform="translate(300,708)" d="m0 0 5 4 1 6h2v4l-4-2-4-10z" fill="#2A282A"/>
<path transform="translate(960,596)" d="m0 0h2l-2 12-3-4v-6l-2-1z" fill="#333631"/>
<path transform="translate(1039,581)" d="m0 0 3 4-1 8h-2v3h-2l1-7z" fill="#313233"/>
<path transform="translate(1809,457)" d="m0 0 2 1v8l-2 8h-1v-14z" fill="#2B282A"/>
<path transform="translate(1058,252)" d="m0 0h1l-1 11h-5l3-9z" fill="#262325"/>
<path transform="translate(1703,240)" d="m0 0h9l-4 1v6h-5z" fill="#312F30"/>
<path transform="translate(1456,240)" d="m0 0h7l-1 6h-6z" fill="#2C292B"/>
<path transform="translate(354,237)" d="m0 0h8v3l-9 1-4 2 2-5z" fill="#F5FAF1"/>
<path transform="translate(1876,907)" d="m0 0 2 4 2 5-1 3-3-3v5l-2-4v-7z" fill="#343432"/>
<path transform="translate(879,651)" d="m0 0 3 1-4 13-1 6h-1v-11z" fill="#4B4B46"/>
<path transform="translate(288,526)" d="m0 0h7l3 1v3h-8l-3-2z" fill="#9C516B"/>
<path transform="translate(324,372)" d="m0 0 4 1-3 1 5 1-4 2-8 1 1-5z" fill="#2D2D2E"/>
<path transform="translate(1325,345)" d="m0 0 11 1v2l4 1-4 1-2-1-10-1-2-2z" fill="#2D2E30"/>
<path transform="translate(370,257)" d="m0 0 1 3-4 5-4 1-1-2 5-5z" fill="#C6E8E4"/>
<path transform="translate(1081,253)" d="m0 0h6l-1 5-3 2-3-1z" fill="#2D2D2F"/>
<path transform="translate(998,951)" d="m0 0h1l1 8h2v5l-3 4-2-11z" fill="#9A5B5D"/>
<path transform="translate(1872,891)" d="m0 0 2 4 1 7-1-3h-2v7l-2-4-1-6 2-1z" fill="#383B38"/>
<path transform="translate(948,532)" d="m0 0h29v1l-26 1-3 1z" fill="#1D1E21"/>
<path transform="translate(736,507)" d="m0 0h11l-3 2 1 2h-8z" fill="#56A278"/>
<path transform="translate(632,457)" d="m0 0h21l-1 2-8 1-12-2z" fill="#2C2D2F"/>
<path transform="translate(412,456)" d="m0 0h10v2l-4 2h-6z" fill="#323233"/>
<path transform="translate(1202,306)" d="m0 0h6l1 1v8l-5-5z" fill="#2C2C2E"/>
<path transform="translate(1006,248)" d="m0 0h1l2 11-4-1-2 2-1-5 3-2z" fill="#39403D"/>
<path transform="translate(997,930)" d="m0 0 2 1 2 10v6l-2-1-2-10z" fill="#383838"/>
<path transform="translate(881,785)" d="m0 0 6 1v4h-10l3-1z" fill="#2A2628"/>
<path transform="translate(1816,738)" d="m0 0 2 1 2 7-2 1-4-3v-5z" fill="#2E3131"/>
<path transform="translate(951,629)" d="m0 0h3v9l-5-5-1-3z" fill="#221A1A"/>
<path transform="translate(1700,600)" d="m0 0 4 1v2l2 2-7 1-2 1-1-4 1-2z" fill="#473639"/>
<path transform="translate(1399,553)" d="m0 0h15v1l-10 1-5 1h-7l4-2z" fill="#2D2E30"/>
<path transform="translate(1429,549)" d="m0 0 10 1v1l-11 2h-11v-1l8-1z" fill="#2C2D2F"/>
<path transform="translate(1456,517)" d="m0 0h1l3 14-3 4-1-6z" fill="#2A282A"/>
<path transform="translate(1779,482)" d="m0 0h10v4l-7-1-3-1z" fill="#272527"/>
<path transform="translate(842,306)" d="m0 0h9v9l-4-5-2-1v-2z" fill="#2D2D2F"/>
<path transform="translate(1012,296)" d="m0 0 13 2v1h-10l-1 1h-12v-1h9z" fill="#323233"/>
<path transform="translate(1031,252)" d="m0 0h1l1 9-8-1 2-6 1 2h3z" fill="#2F3130"/>
<path transform="translate(157,916)" d="m0 0h2l2 7 3 3h-7z" fill="#2C2C2E"/>
<path transform="translate(1859,857)" d="m0 0 2 1 2 6-1 7-2-4-2-9z" fill="#373935"/>
<path transform="translate(1837,791)" d="m0 0 3 3 1 5-2 4v-2h-2l-1-5z" fill="#2F2C2B"/>
<path transform="translate(954,624)" d="m0 0h1v12h-1v-7l-7 2v-2l5-4z" fill="#2A2A2A"/>
<path transform="translate(1664,559)" d="m0 0h1l1 9v14l-5-5 4 1-1-9z" fill="#9D5072"/>
<path transform="translate(333,520)" d="m0 0 10 1 1 3-14-1z" fill="#282729"/>
<path transform="translate(1215,305)" d="m0 0h14v1l-8 1-3 1-2 5h-1z" fill="#292629"/>
<path transform="translate(374,794)" d="m0 0 1 4-3 6-2 1-1-5 3-4h2z" fill="#FFFEFA"/>
<path transform="translate(1610,547)" d="m0 0 4 1-1 3-17-2v-1z" fill="#2A292A"/>
<path transform="translate(251,381)" d="m0 0h2l2 9v7l-2-2-2-9z" fill="#2F2E2F"/>
<path transform="translate(1271,378)" d="m0 0h10l3 3h-10l-5-1z" fill="#FFCB13"/>
<path transform="translate(1485,305)" d="m0 0h20l-1 4-4-1v-2h-15z" fill="#282628"/>
<path transform="translate(308,718)" d="m0 0 2 3 1 8-3 1-2-6z" fill="#3F3B38"/>
<path transform="translate(402,685)" d="m0 0 1 4-6 5v-2l-2-1 2-3z" fill="#39403A"/>
<path transform="translate(950,620)" d="m0 0 1 4-6 5-6-1v-1h5v-2l5-3z" fill="#2A2B2D"/>
<path transform="translate(783,562)" d="m0 0h9l2 3h-12l-4-2z" fill="#29282A"/>
<path transform="translate(1405,549)" d="m0 0h8v1l-14 4-2-1v-2z" fill="#1E1B1D"/>
<path transform="translate(297,532)" d="m0 0h9l1 4h-6z" fill="#2A292B"/>
<path transform="translate(1383,454)" d="m0 0h16l1 3-13-1z" fill="#2D2D2F"/>
<path transform="translate(537,306)" d="m0 0h6l4 4v10h-1l-1-8-4-3v-2z" fill="#2D2E30"/>
<path transform="translate(1644,249)" d="m0 0h2l2 10-5-1z" fill="#3C4742"/>
<path transform="translate(537,199)" d="m0 0h6v2l3 1v2l2 1-2 4-1-4-5-3z" fill="#2D2E30"/>
<path transform="translate(1772,763)" d="m0 0 6 1-3 3h-6l-2-2z" fill="#FEDBAD"/>
<path transform="translate(1772,730)" d="m0 0h6l-5 4h-2v2l-3 1 1-5z" fill="#626455"/>
<path transform="translate(1766,602)" d="m0 0h2v2l5 2 3 3-4 2-6-7z" fill="#313334"/>
<path transform="translate(1806,479)" d="m0 0 2 4-1 9-2 2v-11z" fill="#2D2A2C"/>
<path transform="translate(1196,308)" d="m0 0h6v2h2v5l-6-4-4-2z" fill="#2D2E30"/>
<path transform="translate(1340,256)" d="m0 0 3 2v2l4 1-1 3-5-1z" fill="#2A2729"/>
<path transform="translate(731,243)" d="m0 0h1v15l5-1-1 3h-5z" fill="#47756D"/>
<path transform="translate(1693,253)" d="m0 0 6 1v4h-5l-1 2z" fill="#1B1B1E"/>
<path transform="translate(432,253)" d="m0 0h4l-1 5-1 1h-5l2-4z" fill="#2E2D2E"/>
<path transform="translate(745,239)" d="m0 0 7 1 3 1-2 4-4-3-4-1-1 2z" fill="#343A37"/>
<path transform="translate(984,236)" d="m0 0h1v8h-2l-4-5v-2z" fill="#272628"/>
<path transform="translate(380,844)" d="m0 0 3 3-4 10h-2z" fill="#161113"/>
<path transform="translate(882,742)" d="m0 0h2l4 7-3 2v-2l-3-1z" fill="#333632"/>
<path transform="translate(311,625)" d="m0 0 1 3-1 5-4 3h-2l2-6z" fill="#2C2C2E"/>
<path transform="translate(1613,535)" d="m0 0h8v1l-6 1-1 2h-5v-2l-4-1z" fill="#9C467F"/>
<path transform="translate(802,502)" d="m0 0h9l-2 1v2l3-1v2h-12v-1h6v-2z" fill="#8A6B60"/>
<path transform="translate(1753,481)" d="m0 0 10 1-2 1v2l2 1-10-1 3-2z" fill="#9C4B70"/>
<path transform="translate(1129,424)" d="m0 0h8l-1 4h-5z" fill="#1A1719"/>
<path transform="translate(1511,305)" d="m0 0h9l-3 2-4 1-1 6h-1z" fill="#272628"/>
<path transform="translate(698,248)" d="m0 0h2v6l-2 1v-2l-4 2-1-3z" fill="#3E4642"/>
<path transform="translate(856,197)" d="m0 0 20 1v1l-18 1-2 1z" fill="#262325"/>
<path transform="translate(911,956)" d="m0 0h3l1 9-3-1-1-2z" fill="#DA963F"/>
<path transform="translate(1779,621)" d="m0 0h5l3 5-4 2v-3h-2z" fill="#302F2C"/>
<path transform="translate(1732,595)" d="m0 0 6 1 1 2 3 2-8 1z" fill="#312F2F"/>
<path transform="translate(618,553)" d="m0 0h6l-3 2 10 1v1h-15z" fill="#8C6C57"/>
<path transform="translate(1580,539)" d="m0 0 14 1v1l-15 1z" fill="#9C5A44"/>
<path transform="translate(1071,481)" d="m0 0h4v2h3v2h-7l-3-3z" fill="#2C2D2F"/>
<path transform="translate(1030,246)" d="m0 0h3l-1 6-1 4h-3z" fill="#1E1C1E"/>
<path transform="translate(1039,248)" d="m0 0 5 2-1 4-2 1-2 4z" fill="#3E4542"/>
<path transform="translate(433,243)" d="m0 0h4v6h-5v-3z" fill="#2F2D2C"/>
<path transform="translate(1627,238)" d="m0 0 5 1 3 3v2l-7-1z" fill="#303C3A"/>
<path transform="translate(913,965)" d="m0 0 3 1v10l-2-1z" fill="#D68F42"/>
<path transform="translate(1862,872)" d="m0 0h3l2 9-2 3z" fill="#3D3E3C"/>
<path transform="translate(301,656)" d="m0 0h2l-1 6-2 5h-2l1-9z" fill="#343B38"/>
<path transform="translate(1624,595)" d="m0 0h6v2l-7 2-5-1 2-2z" fill="#2E2D2F"/>
<path transform="translate(1646,528)" d="m0 0h1v9l-1-2h-8l1-2 6-1z" fill="#A05563"/>
<path transform="translate(1803,497)" d="m0 0 2 4-1 7-2 1v-9z" fill="#2D282A"/>
<path transform="translate(1694,258)" d="m0 0h5v4l-4 1-2 2z" fill="#2C282A"/>
<path transform="translate(157,97)" d="m0 0 4 2-1 3-1 11h-1z" fill="#2C292B"/>
</svg>
