<?xml version="1.0" encoding="UTF-8"?>
<svg version="1.1" viewBox="0 0 2048 948" width="1024" height="474" xmlns="http://www.w3.org/2000/svg">
<path transform="translate(0)" d="m0 0h2048v948h-2048z" fill="#FDFDFD"/>
<path transform="translate(0)" d="m0 0h2048v283h-1342v68h-706z" fill="#FDBA46"/>
<path transform="translate(423,471)" d="m0 0h29l18 3 20 6 16 7 16 10 14 11 13 13 10 13 10 17 8 19 4 14 3 19v28l-4 23-6 18-8 16-7 12-11 14-14 14-16 12-16 9-5 2h36l1-22h67v79h-67l-1-12v-10h-135v33h-146v-145l1-1h145l1 2-1 43 50-1 20-4 13-5 13-7 11-9 7-6 10-13 9-17 5-16 2-10v-26l-4-18-7-16-7-12-12-14-14-11-17-9-16-5-11-2h-24l-18 4-13 5-11 6-11 8-12 12-10 14-7 15-4 13-3 17h17l-2 4-12 14-9 11-11 13-5 6-6-5-9-11-11-13-9-11-5-6v-2h17l1-15 3-15 5-16 7-16 10-16 8-10 9-10 12-11 13-9 16-9 15-6 19-5z" fill="#010101"/>
<path transform="translate(1658,471)" d="m0 0h14l12 4 9 7 6 7 5 12v19l-4 10-2 4 11-8 10-14 24-36 6-4 3-1h12l8 5 4 5 2 6-1 9-9 16-10 16-14 22-9 10-10 8-14 7-6 2v70l8 1 16 5 9 7 6 7 5 12 1 6v91l-3 10 37-1h24l20 1v33h-179v-11h168v-11h-146v-11h36l-2-6-1-12v-53l-1-13-12-3-20-3v54l-4 10-7 6-8 3-67 1-8 8-11 6-8 2h-10l-13-4-10-7-6-8-4-9-2-9 1-11 4-11 6-8 7-6 10-5 5-1h14l11 4 9 6 5 6 41 1v-139l-5 3-13 19-24 36-7 6-6 2h-7l-7-2-6-5-3-5-1-10 3-8 17-28 11-18 9-11 11-10 14-8 10-4 15-4-6-8-4-9-1-4v-13l3-10 7-11 11-8z" fill="#010101"/>
<path transform="translate(939,662)" d="m0 0h180l1 32v13l10 3 9 6 7 7 6 12 1 4v14l-4 11-6 9-8 7-12 5-4 1h-10l-13-4-9-6-7-8-5-11-1-5v-11h-135z" fill="#010101"/>
<path transform="translate(1399,73)" d="m0 0h12l15 2 13 4 10 6 9 8 7 11 5 14 2 12v28l-3 14-5 13-8 11-8 7-14 7-12 3-8 1h-17l-15-3-13-5-9-7-8-8-8-16-3-11-1-7v-26l3-15 5-13 6-9 9-9 10-6 12-4z" fill="#FEFEFE"/>
<path transform="translate(264,685)" d="m0 0h124v122l-1 1h-123z" fill="#FDFBF8"/>
<path transform="translate(1755,482)" d="m0 0 8 1 3 3v7l-12 20-13 21-8 12-9 9-11 7-15 5h-4v89l9 1 18 5 8 5 6 7 3 8v96l-5 6-5 2-5-1-6-5-1-2-1-76-4-8-7-4-25-4-24-4-9-6-5-6-4-10v-88l-14 2-9 5-7 9-29 44-6 7-7 1-5-3-2-6 6-11 13-22 12-19 9-10 10-8 16-8 14-3 18-1h27l12-2 16-8 7-6 11-16 20-30 4-4z" fill="#FDFCFB"/>
<path transform="translate(430,482)" d="m0 0h15l18 2 19 5 19 8 16 10 13 11 12 12 12 17 8 16 6 16 3 12 2 15v22l-3 19-6 20-8 16-9 14-8 10-13 13-12 9-14 8-15 7-17 5-11 2-12 1h-46l-1-1v-21l6-1 48-1 15-3 15-5 17-9 12-9 6-6h2l2-4 7-8 9-14 7-17 4-16 1-6v-28l-4-19-5-13-8-15-10-13-13-13-15-10-15-7-16-5-11-2h-28l-19 4-15 6-13 7-13 10-12 12-9 13-8 15-5 15-3 15-1 20 4 1-13 15-3 3-12-14-3-5 3-1 2-24 6-25 7-16 9-16 8-10 9-10 7-7 15-11 14-8 15-6 19-5z" fill="#FDFAF8"/>
<path transform="translate(704,302)" d="m0 0h1l1 49h-706v-20l702-1z" fill="#F79740"/>
<path transform="translate(1035,470)" d="m0 0h18l27 1v78l-180 1v-79z" fill="#010101"/>
<path transform="translate(643,76)" d="m0 0h58l15 3 10 4 10 8 5 10 2 9v12l-3 10-6 10-9 8-3 2 1 4 29 44 7 10v2h-41l-6-9-15-26-7-12v-2h-10v49h-37z" fill="#FEFEFE"/>
<path transform="translate(534,75)" d="m0 0h49l14 41 16 49 14 43v4h-39l-3-7-5-18h-43l-7 25h-41l3-10 16-49 16-50 9-27z" fill="#FEFEFE"/>
<path transform="translate(1123,75)" d="m0 0h49l3 8 24 72 14 43 4 12v2h-40l-5-16-2-10-44 1-7 25h-40l1-7 21-64 16-50 5-15z" fill="#FEFEFE"/>
<path transform="translate(1532,673)" d="m0 0h42l4 12 5-2 5-3 4 1 11 11 7 8 9 8-1 6-4 7v3h-29l-6-7-10-6-9-3h-14l-10 3-10 7-6 7-4 9-2 10 1 11 4 10 6 9 10 7 13 4h10l10-3 10-6 7-7h28l6 12-1 4-28 28-5-2-8-4-1 8-2 4h-43l-3-12-9 5-4 1-27-27-2-4 6-11-12-3-1-8v-35l10-3h3l-5-10v-4l28-28 5 1 8 5 3-12z" fill="#FDBA46"/>
<path transform="translate(1035,583)" d="m0 0h179v57h-179z" fill="#010101"/>
<path transform="translate(449,555)" d="m0 0h13l15 4 12 6 10 8 8 10 7 14 2 7 1 8v10l-2 12-5 12-7 11-8 8-13 8-10 4-9 2h-16l-15-4-13-7-12-11-7-11-5-12-2-10v-13h56z" fill="#010101"/>
<path transform="translate(1119,666)" d="m0 0h1v7h15l3 10v3l10-6 4 1 28 28-2 6-4 7 11 2 2 2v41l-8 3-4 1 2 6 3 4-1 4-28 28-5-2-8-4-1 7-2 5h-43l-3-9v-3l-11 6-4-2-27-27 1-4 5-9-12-3-1-1v-25l1-1h33l2 16 7 14 9 8 12 5 5 1h10l12-4 9-6 6-7 5-11 1-4v-14l-4-11-6-8-8-7-9-4-6-2z" fill="#FDBA46"/>
<path transform="translate(1530,74)" d="m0 0h25l18 4 13 5-1 5-9 23-2 1-16-6-10-2h-11l-6 3-2 3 1 6 8 6 25 12 13 9 6 7 4 12v17l-4 12-7 9-10 7-13 5-11 2h-20l-16-3-14-5v-33l24 8 11 2h13l7-3 3-4-1-6-5-5-27-13-12-8-7-8-5-13v-16l3-10 5-8 8-7 10-5z" fill="#FEFEFE"/>
<path transform="translate(885,76)" d="m0 0h81v29h-44v21h36l5 1v29l-40 1-1 25h43l1 1v29h-81z" fill="#FEFEFE"/>
<path transform="translate(990,76)" d="m0 0h80l1 29h-45l1 25 40 1v30h-41v51h-36l-1-135z" fill="#FEFEFE"/>
<path transform="translate(1222,76)" d="m0 0h103v30h-33v106h-37v-106h-33z" fill="#FEFEFE"/>
<path transform="translate(762,76)" d="m0 0h103l1 1v29l-31 1-3-1v106h-36l-1-24v-81l-33-1z" fill="#FEFEFE"/>
<path transform="translate(275,695)" d="m0 0h95l6 1v56h-101l-1-20z" fill="#FDB946"/>
<path transform="translate(967,580)" d="m0 0 6 2 52 26 5 3-4 3-56 28-3 1v-26l-77 1-7 4-4 6-1 4v105l3 8 6 5 4 1 93 1v11h-95l-8-3-6-4-6-8-3-8v-111l4-10 7-8 7-4 4-1h79z" fill="#010101"/>
<path transform="translate(1526,493)" d="m0 0h44v11l-1 1-44 1-6 4-4 6-1 4-1 74-1 1h-7l-3-1 6 11 11 17 10-15 5-9 2-3h-11v-72l5-6 2-1h71v11h-67v57l3-1h18l-2 5-11 18-21 33-3 5h-2l-7-12-14-22-13-21-3-6h21v-66l3-9 9-10 8-4z" fill="#010101"/>
<path transform="translate(430,532)" d="m0 0h6l2 1v67h-68v-9l3-16 8-16 9-10 7-6 16-8z" fill="#FEBB47"/>
<path transform="translate(1091,595)" d="m0 0h113v33h-113z" fill="#FDFCFA"/>
<path transform="translate(1398,104)" d="m0 0h16l8 4 6 7 4 10 2 15-1 18-4 13-7 8-9 4h-14l-10-5-6-8-4-14-1-8v-9l3-17 5-10 7-6z" fill="#FEBB47"/>
<path transform="translate(275,763)" d="m0 0h101v34h-101l-1-21z" fill="#FDB846"/>
<path transform="translate(405,623)" d="m0 0h100l-2 11-6 12-9 10-11 7-13 4-13 1-16-4-9-5-10-9-7-11-4-11z" fill="#FDFAF6"/>
<path transform="translate(1637,683)" d="m0 0 11 7 11 4 1 1v50l-2 8-5 4h-72l-5-6-1-6 3-6 5-4h54z" fill="#FDFBF9"/>
<path transform="translate(967,515)" d="m0 0h78l23 1v22l-3 1h-108l-1-1v-22z" fill="#FDF6F0"/>
<path transform="translate(957,482)" d="m0 0h111l1 22-1 1h-111l-1-1v-21z" fill="#FDF5ED"/>
<path transform="translate(545,741)" d="m0 0h45v55l-21 1h-24z" fill="#FDFBF9"/>
<path transform="translate(996,673)" d="m0 0h112v22l-7 1-106-1v-21z" fill="#FDFBFA"/>
<path transform="translate(995,707)" d="m0 0h113v22h-113z" fill="#FDFCFB"/>
<path transform="translate(1662,482)" d="m0 0 12 1 9 5 7 8 3 7 1 9-3 10-6 9-7 5-6 2h-13l-8-3-9-8-4-8-1-4v-10l4-10 6-7 10-5z" fill="#FDFCFA"/>
<path transform="translate(275,695)" d="m0 0h95l6 1v22h-101z" fill="#FDB646"/>
<path transform="translate(1548,718)" d="m0 0h10l10 4 5 4-1 4-5 6-2 6v9l5 10 3 3-2 4-8 5-3 1h-15l-8-4-5-4-6-10-1-3v-14l5-10 8-7z" fill="#FDFBF9"/>
<path transform="translate(1114,504)" d="m0 0 55 1 7 4 4 6 1 3v20h21v3l-16 21-9 12-3 1-14-19-12-16v-2h22l-1-17-2-4-53-1-1-1v-10z" fill="#010101"/>
<path transform="translate(404,763)" d="m0 0h129l1 10-1 1h-135v-10z" fill="#FDF4ED"/>
<path transform="translate(461,567)" d="m0 0 8 1 12 5 10 8 8 10 5 12 1 8h-44z" fill="#FDFCFB"/>
<path transform="translate(275,763)" d="m0 0h101v12h-79l-22-1z" fill="#010101"/>
<path transform="translate(1119,719)" d="m0 0 5 1 7 4 5 5 4 7 2 8-1 10-5 10-8 7-7 3h-15l-10-5-7-8-3-7v-13h11l1 11 5 7 6 3h9l7-4 4-6v-11l-3-5v-2l-5-2-2-2z" fill="#FDF8F3"/>
<path transform="translate(275,718)" d="m0 0h101v11l-4 1h-67l-30-1z" fill="#010101"/>
<path transform="translate(1047,594)" d="m0 0h27l6 1v33h-34v-33z" fill="#FDFCFB"/>
<path transform="translate(275,752)" d="m0 0h101v11h-101l-1-8z" fill="#FDB946"/>
<path transform="translate(275,741)" d="m0 0h101v11h-101z" fill="#010101"/>
<path transform="translate(1657,550)" d="m0 0h17l2 27v13l-10 10-4-2-8-8 1-21 1-14z" fill="#FEBB47"/>
<path transform="translate(1147,102)" d="m0 0 2 1 12 46 1 7h-29l12-48z" fill="#FEBB47"/>
<path transform="translate(558,102)" d="m0 0h2l5 22 8 29v3h-29l4-17 9-35z" fill="#FEBB47"/>
<path transform="translate(911,482)" d="m0 0h33l1 1v21l-5 1h-29z" fill="#FDF5EE"/>
<path transform="translate(911,516)" d="m0 0h34v22l-3 1h-31z" fill="#FDFAF7"/>
<path transform="translate(951,673)" d="m0 0h33v22l-19 1h-11l-4-1v-21z" fill="#FDFCFA"/>
<path transform="translate(950,707)" d="m0 0h34v22h-34z" fill="#FDFDFD"/>
<path transform="translate(679,104)" d="m0 0h16l6 3 4 5 1 3v7l-4 8-7 4-6 1h-9l-1-15z" fill="#FEBB47"/>
<path transform="translate(321,695)" d="m0 0h49l6 1v11h-56v-11z" fill="#010101"/>
<path transform="translate(275,785)" d="m0 0h34l23 1-1 11h-56z" fill="#010101"/>
<path transform="translate(1136,606)" d="m0 0h56v11h-55l-1-1z" fill="#FCB545"/>
<path transform="translate(1732,883)" d="m0 0 6 1 4 1 3-2 7 1 3 4v18h-8l-1-16h-4l-1 16h-7l-1-16h-5v15l-1 1h-7v-22h6v2z" fill="#010101"/>
<path transform="translate(435,877)" d="m0 0h13l7 3 1 7-2 5 2 1v9l-4 3-3 1h-14z" fill="#0B0B0B"/>
<path transform="translate(1031,877)" d="m0 0h12l6 2 3 3-1 7-1 3 2 1v9l-4 3-3 1h-14z" fill="#0B0B0A"/>
<path transform="translate(1543,883)" d="m0 0 13 1-1 4h-2v7l-3 3-7 1 10 2 3 5-2 6-6 3h-11l-4-3v-6l2-1v-6-4l-1-6 4-5z" fill="#0C0C0B"/>
<path transform="translate(1175,883)" d="m0 0 13 1-1 4h-2v7l-3 3h-8v2l11 1 3 4-1 6-6 4h-12l-4-4 1-5 2-3v-4l-1-4v-8l3-3z" fill="#0C0C0B"/>
<path transform="translate(578,883)" d="m0 0 14 1-1 4h-2v7l-3 3-7 1 10 2 3 4-1 6-6 4h-12l-4-4 1-5 2-3-1-3 1-4-1-1v-7l3-4z" fill="#0C0C0B"/>
<path transform="translate(919,883)" d="m0 0 5 1v2l5-3 6 1 3 3 1 3v10l-3 5-2 1h-6l-2-1-1 10h-7v-31z" fill="#010101"/>
<path transform="translate(345,876)" d="m0 0h8l-1 30h-5l-3-1-2 1h-6l-4-4-1-3v-8l3-6 3-2 6 1 1 1z" fill="#010101"/>
<path transform="translate(539,722)" d="m0 0m-1 1m-1 1m-1 1m-1 1m-1 1m-2 1h2v23l-1 1h-37l3-3 14-7 13-9z" fill="#FDF3EA"/>
<path transform="translate(508,875)" d="m0 0 7 1 1 15 5-7h9l-6 8 1 4 5 8v2h-8l-5-7h-1l-1 7h-8v-30z" fill="#010101"/>
<path transform="translate(1103,876)" d="m0 0h7l1 7v8l4-5 2-2h9l-6 8 1 4 5 8v2h-8l-5-7h-1l-2 7h-7z" fill="#010101"/>
<path transform="translate(264,877)" d="m0 0h10l7 2 3 3v9l-5 5h-8v10h-7z" fill="#010101"/>
<path transform="translate(1150,883)" d="m0 0 7 1 5 5 1 2v7l-3 6-3 2h-9l-6-5-1-2v-8l3-5z" fill="#010101"/>
<path transform="translate(554,883)" d="m0 0 8 1 4 4 1 3v7l-3 6-4 2h-8l-6-5-1-3v-7l4-6z" fill="#010101"/>
<path transform="translate(315,883)" d="m0 0 7 1 5 4 1 3v8l-3 5-4 2h-8l-6-5-1-3v-7l3-5z" fill="#010101"/>
<path transform="translate(901,877)" d="m0 0h8l5 2-2 6-9-1v2l10 6 1 2v6l-4 5-2 1h-11l-3-2v-6l11 1 1-3-6-2-5-4-1-6 3-5z" fill="#010101"/>
<path transform="translate(1426,877)" d="m0 0h16v7h-9v4h9v6l-8 1-1 4h9v7h-16z" fill="#010101"/>
<path transform="translate(1065,883)" d="m0 0 8 1 3 3 1 3v15l-1 1h-5l-2-2-2 2h-8l-3-4v-7l5-3 7-1-4-1-5-1-1-4z" fill="#0E0D0C"/>
<path transform="translate(1567,883)" d="m0 0h6l5 4 1 3v15l-1 1h-5l-2-2-2 2h-7l-4-4v-6l2-3 10-2-4-1-5-1-1-3 2-2z" fill="#0E0C0B"/>
<path transform="translate(1837,883)" d="m0 0h6l4 2 2 4v17h-6v-3l-4 3h-8l-3-5 1-7 4-2 7-1-4-1h-4l-1-5z" fill="#0D0C0B"/>
<path transform="translate(469,883)" d="m0 0 8 1 4 5v16l-1 1h-5l-2-2-3 2h-7l-3-4v-6l2-3 10-2v-1h-8l-2-4 2-2z" fill="#0E0D0C"/>
<path transform="translate(1448,883)" d="m0 0 8 2 3-2 7 1 3 5v17h-8v-16h-6v15l-1 1h-6l-1-1v-21z" fill="#010101"/>
<path transform="translate(1787,883)" d="m0 0 6 2 3-2 7 1 3 4v18h-7l-1-1v-15l-5 1-1 15h-7l-1-1v-19z" fill="#010101"/>
<path transform="translate(1630,883)" d="m0 0 8 2 3-2 6 1 4 4v18h-8v-16h-6v15l-1 1h-7v-22z" fill="#010101"/>
<path transform="translate(976,883)" d="m0 0 8 2 3-2 6 1 3 3 1 3v16h-8v-16h-6v15l-1 1h-7v-22z" fill="#010101"/>
<path transform="translate(1518,883)" d="m0 0 8 1 4 4 1 8-1 1-12 1v2h12l-1 5-2 1h-11l-5-4-1-2v-10l3-5z" fill="#0C0B0A"/>
<path transform="translate(1767,883)" d="m0 0 8 1 5 5v8h-13v3h12l-1 5-1 1h-12l-5-5-1-2v-8l3-5z" fill="#0D0C0B"/>
<path transform="translate(1703,883)" d="m0 0 8 1 4 4 1 2v6l-1 1h-12v3h11v5l-1 1h-12l-5-5-1-2v-9l3-5z" fill="#0C0C0B"/>
<path transform="translate(358,884)" d="m0 0h8v16l4-1 1-3 1-12h7v22h-5l-2-2-3 2h-7l-4-4z" fill="#010101"/>
<path transform="translate(979,599)" d="m0 0 9 3 17 9-4 3-20 10h-2z" fill="#FDF7F2"/>
<path transform="translate(1590,883)" d="m0 0 9 1 1 4-1 2-7-1 4 3 5 4-1 7-3 3h-12l-2-2v-5l10 1-2-2-6-3-2-6 4-5z" fill="#010101"/>
<path transform="translate(1873,883)" d="m0 0 9 1 1 5-3 1-5-1 4 3 5 4v6l-4 4h-12l-1-1v-6l9 1-4-3-5-4v-6l3-3z" fill="#010101"/>
<path transform="translate(556,774)" d="m0 0h22l1 5v6l-1 1h-21l-1-1z" fill="#010101"/>
<path transform="translate(1816,879)" d="m0 0 4 1v4h5v5h-5v11l5-1 1 4-2 3h-9l-3-4-1-12-1-4 4-6z" fill="#010101"/>
<path transform="translate(556,752)" d="m0 0h22l1 3-1 9h-20l-2-1z" fill="#010101"/>
<path transform="translate(494,883)" d="m0 0 9 1-1 6h-7l-1 1v8h9v5l-3 2h-9l-5-4-1-2v-10l5-6z" fill="#010101"/>
<path transform="translate(1478,879)" d="m0 0 4 1 1 3 5 1-1 5-4 1v9l5 1v5l-1 1h-9l-3-3-2-14v-4h2l2-5z" fill="#010101"/>
<path transform="translate(411,879)" d="m0 0 4 2v3h5v5h-5l1 11h4v5l-1 1h-9l-3-4-1-12-2-3 5-7z" fill="#010101"/>
<path transform="translate(1090,883)" d="m0 0 8 1v6h-9v10l9-1v6l-2 1h-10l-5-5-1-9 3-6z" fill="#010101"/>
<path transform="translate(1007,879)" d="m0 0 3 1 1 3 4 1v5l-4 1-1 10h5l1 2-2 4h-8l-3-3-1-2v-12h-2l1-4 4-5z" fill="#010101"/>
<path transform="translate(393,883)" d="m0 0 8 1 1 3-2 3h-8v7l2 3 8-1-1 6-2 1h-9l-5-4-2-8 3-8z" fill="#010101"/>
<path transform="translate(1664,883)" d="m0 0 8 1 1 2-1 4h-9v10l10-1-1 6-2 1h-9l-5-4-1-2v-10l3-5z" fill="#010101"/>
<path transform="translate(1170,606)" d="m0 0h22v11h-23z" fill="#FDB946"/>
<path transform="translate(1130,875)" d="m0 0 7 1v29l-1 1h-7v-30z" fill="#010101"/>
<path transform="translate(556,763)" d="m0 0 23 1v11l-23-1z" fill="#FDBA46"/>
<path transform="translate(1504,883)" d="m0 0 4 1-2 7-5 1-1 13-1 1h-7v-22h6l2 2z" fill="#010101"/>
<path transform="translate(1678,883)" d="m0 0 5 1 3 3 1-3 4-1 2 3-2 5-5 1-1 13-1 1h-6l-1-1v-20z" fill="#010101"/>
<path transform="translate(534,875)" d="m0 0h6l1 1v30h-7z" fill="#010101"/>
<path transform="translate(945,883)" d="m0 0 5 2v2l5-4 4 1v5l-7 3-1 14h-7v-22z" fill="#010101"/>
<path transform="translate(1617,877)" d="m0 0h6v29h-7v-28z" fill="#010101"/>
<path transform="translate(289,883)" d="m0 0 5 1 1 2 4-2 4-1 1 5-2 3h-5l-1 15h-7z" fill="#010101"/>
<path transform="translate(1854,884)" d="m0 0h8v21l-1 1h-7z" fill="#010101"/>
<path transform="translate(962,884)" d="m0 0h8v21l-1 1h-7z" fill="#010101"/>
<path transform="translate(298,695)" d="m0 0h8l3 1v11h-12v-11z" fill="#010101"/>
<path transform="translate(275,695)" d="m0 0h8l4 1v11h-12z" fill="#010101"/>
<path transform="translate(1604,493)" d="m0 0h10l1 1v10l-1 1h-10l-1-1v-10z" fill="#010101"/>
<path transform="translate(1581,493)" d="m0 0h11v12h-11z" fill="#010101"/>
<path transform="translate(1603,808)" d="m0 0h12v10l-1 1h-11z" fill="#010101"/>
<path transform="translate(449,634)" d="m0 0h12v7l-1 4h-11z" fill="#010101"/>
<path transform="translate(344,785)" d="m0 0 10 1v7l-1 4h-10v-11z" fill="#010101"/>
<path transform="translate(1626,808)" d="m0 0h11v11h-11z" fill="#010101"/>
<path transform="translate(1626,786)" d="m0 0h11v11h-11z" fill="#010101"/>
<path transform="translate(365,786)" d="m0 0h11v11h-11z" fill="#010101"/>
<path transform="translate(1018,752)" d="m0 0h11v11h-11z" fill="#010101"/>
<path transform="translate(472,634)" d="m0 0h11v11h-11z" fill="#010101"/>
<path transform="translate(427,634)" d="m0 0h11v11h-11z" fill="#010101"/>
<path transform="translate(1181,606)" d="m0 0h11v11h-11z" fill="#010101"/>
<path transform="translate(1136,606)" d="m0 0h11v11h-10l-1-1z" fill="#010101"/>
<path transform="translate(1158,606)" d="m0 0h12v8l-1 3h-10z" fill="#010101"/>
<path transform="translate(1091,505)" d="m0 0h11v11h-9l-2-1z" fill="#010101"/>
<path transform="translate(1649,786)" d="m0 0h11l-1 11h-10z" fill="#010101"/>
<path transform="translate(996,752)" d="m0 0h10v11h-10z" fill="#010101"/>
<path transform="translate(1111,741)" d="m0 0 7 1 1 7-4 3-5-1-2-2v-5z" fill="#FDF5EE"/>
<path transform="translate(315,889)" d="m0 0 5 1v9l-4 2-2-2v-9z" fill="#FDF5EF"/>
<path transform="translate(1150,889)" d="m0 0 4 1 1 1v8l-4 2-2-2v-9z" fill="#FDF2E8"/>
<path transform="translate(554,889)" d="m0 0 4 1 1 1v8l-4 2-2-2v-9z" fill="#FDF5EE"/>
<path transform="translate(340,890)" d="m0 0 5 1 1 5-2 4-5-1v-8z" fill="#FDF5ED"/>
<path transform="translate(928,889)" d="m0 0 3 1v9l-4 1-2-4 1-6z" fill="#FCEEE1"/>
<path transform="translate(1855,875)" d="m0 0 7 1-1 6h-6l-1-1v-5z" fill="#010101"/>
<path transform="translate(963,875)" d="m0 0 7 1-1 6h-6l-1-1v-5z" fill="#010101"/>
<path transform="translate(1170,550)" d="m0 0h10l-3 6-4-1z" fill="#FCEDE0"/>
<path transform="translate(1038,894)" d="m0 0h5l1 5-1 1h-5z" fill="#FCEEE2"/>
<path transform="translate(443,894)" d="m0 0 5 1 1 3-3 2-4-1z" fill="#FBDDC2"/>
<path transform="translate(1540,907)" d="m0 0h9l-1 3h-9z" fill="#FDEFE2"/>
<path transform="translate(271,884)" d="m0 0h5v5l-4 1-1-1z" fill="#FCE7D5"/>
<path transform="translate(576,907)" d="m0 0h9l-1 3h-8z" fill="#FDFAF6"/>
<path transform="translate(1172,907)" d="m0 0h9l-1 3h-8z" fill="#FDFAF6"/>
</svg>
